<svg id="Capa_1" data-name="Capa 1" xmlns="http://www.w3.org/2000/svg" viewBox="0 0 1920 260.53"><defs><style>.cls-1{fill:none;stroke:#c9c9c9;stroke-miterlimit:10;stroke-width:2px;}.cls-2{fill:#9af8ff;}.cls-3{fill:#ffb3ba;}.cls-4{fill:#faedbc;}</style></defs><title>background-cumpleanios</title><path class="cls-1" d="M402.76-5C343.81,25.51,278.82,43.31,212.18,49.1c-2.07.42-4.14.42-6.21.83C134.36,55.31,62.76,43.72-4.21,19.63"/><path class="cls-2" d="M71.58,79.41l-11.85-15-16.4,9.21q3.91-18.9,7.82-37.8Q58.37,37.57,66,39.17q6.72,1.41,13.19,2.58Q75.39,60.59,71.58,79.41Z"/><path class="cls-3" d="M29.31,70.17l-11.85-15L1.06,64.39,9.7,24q7,2.31,14.46,4.53Q30.67,30.51,37,32.22Z"/><path class="cls-2" d="M213.68,87.25,198.42,75.77,184.88,88.83q-1.06-19.48-2.14-39c4.81-.12,9.74-.3,14.79-.57q7.18-.37,14-.92Z"/><path class="cls-4" d="M117,86.28,104.08,72.22,88.42,82.63q2.44-19.26,4.91-38.52,6.51,1,13.37,1.89,7.9,1,15.4,1.7Q119.57,67,117,86.28Z"/><path class="cls-4" d="M264.7,81,248.58,70.73,236.13,84.82l-5.19-38.48c4.34-.49,8.79-1.06,13.32-1.7,5.23-.73,10.32-1.54,15.26-2.39Q262.12,61.61,264.7,81Z"/><path class="cls-3" d="M165.09,88.91l-14.2-12.77L136.27,88l1.26-39c4.9.35,10,.63,15.17.81q7,.26,13.71.28Z"/><path class="cls-3" d="M310.55,71.59l-16.84-9q-5.68,7.49-11.38,15l-8.1-38.16c4.72-1,9.52-2.08,14.4-3.24q7-1.63,13.64-3.37Z"/><path class="cls-2" d="M358.45,55.88l-17.79-7-9.51,16.22q-6.33-18.49-12.64-37c4.23-1.27,8.55-2.61,12.94-4.05q7.49-2.46,14.52-5Z"/><path class="cls-4" d="M403.58,36.86l-18.4-5.11q-3.92,8.56-7.82,17.11L361.05,13.34q6.57-2.62,13.37-5.58t13.23-6Z"/><path class="cls-1" d="M1514.22-.73c59,30.51,123.94,48.31,190.58,54.1,2.07.42,4.14.42,6.21.83,71.61,5.38,143.21-6.21,210.18-30.3"/><path class="cls-2" d="M1845.4,83.69l11.85-15,16.41,9.21-7.83-37.8q-7.21,1.72-14.84,3.33-6.72,1.41-13.19,2.58Q1841.61,64.86,1845.4,83.69Z"/><path class="cls-3" d="M1887.67,74.44l11.85-15,16.4,9.2q-4.32-20.17-8.63-40.35-7,2.31-14.47,4.53-6.51,1.95-12.8,3.65Z"/><path class="cls-2" d="M1703.31,91.53,1718.56,80,1732.1,93.1q1.07-19.48,2.14-39-7.21-.16-14.79-.56-7.18-.39-14-.93Q1704.37,72.09,1703.31,91.53Z"/><path class="cls-4" d="M1800,90.55q6.46-7,12.94-14l15.67,10.4-4.92-38.52q-6.51,1-13.37,1.89-7.89,1-15.4,1.7Q1797.42,71.26,1800,90.55Z"/><path class="cls-4" d="M1652.28,85.24,1668.4,75q6.22,7.05,12.46,14.09,2.6-19.23,5.18-38.48-6.51-.73-13.32-1.69c-5.23-.74-10.32-1.55-15.26-2.4Q1654.87,65.88,1652.28,85.24Z"/><path class="cls-3" d="M1751.89,93.19l14.2-12.78,14.62,11.83-1.26-39q-7.35.53-15.17.82-7,.24-13.71.27Z"/><path class="cls-3" d="M1606.44,75.86l16.84-9,11.37,15q4-19.08,8.11-38.16c-4.73-1-9.53-2.08-14.41-3.24q-7-1.63-13.64-3.37Z"/><path class="cls-2" d="M1558.53,60.15l17.79-7,9.51,16.23q6.33-18.49,12.64-37-6.35-1.89-12.94-4.05-7.48-2.46-14.52-5Z"/><path class="cls-4" d="M1513.4,41.13,1531.8,36q3.92,8.56,7.82,17.11l16.31-35.52Q1549.38,15,1542.56,12t-13.23-6Z"/></svg>