<svg xmlns="http://www.w3.org/2000/svg" viewBox="0 0 620 347"><defs><style>.cls-1{fill:#ffb3ba;}.cls-2{fill:#fff;}.cls-3{fill:none;stroke:#c9c9c9;stroke-miterlimit:10;stroke-width:2px;}.cls-4{fill:#faedbc;}.cls-5{fill:#9af8ff;}</style></defs><title>background-cumpleanieros</title><g id="Capa_2" data-name="Capa 2"><rect class="cls-1" x="-214.49" y="-2.19" width="1069.92" height="349.19"/></g><g id="Capa_1" data-name="Capa 1"><rect class="cls-2" x="339.29" y="91.81" width="14.28" height="7.14" transform="translate(705.71 90.23) rotate(163.78)"/><polygon class="cls-2" points="426.13 80.58 431.48 87.16 428.19 89.84 422.85 83.26 426.13 80.58"/><rect class="cls-2" x="433.27" y="209.09" width="16.52" height="8.26" transform="translate(929.26 162.98) rotate(148.34)"/><rect class="cls-2" x="202.05" y="176.81" width="9.47" height="4.74" transform="translate(-20.48 26.82) rotate(-7.07)"/><rect class="cls-2" x="123.46" y="291.5" width="9.47" height="4.74" transform="translate(-35.2 18.01) rotate(-7.07)"/><rect class="cls-2" x="123.21" y="195.61" width="14.77" height="7.38" transform="translate(314.5 47.8) rotate(83.75)"/><rect class="cls-2" x="208.21" y="246.51" width="14.77" height="7.38" transform="translate(440.86 8.67) rotate(83.75)"/><rect class="cls-2" x="400.7" y="121.82" width="9.09" height="4.54" transform="translate(623.93 -238.95) rotate(104.04)"/><rect class="cls-2" x="584.91" y="257.62" width="8.39" height="16.77" transform="translate(-52.38 345.4) rotate(-31.36)"/><rect class="cls-2" x="479.11" y="133.79" width="4.09" height="8.19" transform="translate(-6.65 249.98) rotate(-28.93)"/><polygon class="cls-2" points="436.36 119.74 438.29 130.17 433.07 131.12 431.15 120.7 436.36 119.74"/><rect class="cls-2" x="1.05" y="136.86" width="17.08" height="8.54" transform="translate(24.73 281.77) rotate(177.74)"/><polygon class="cls-2" points="437.42 41.91 445.17 47.81 442.23 51.69 434.47 45.79 437.42 41.91"/><polygon class="cls-2" points="4.34 277.99 7.92 292.09 0.88 293.87 -2.7 279.78 4.34 277.99"/><rect class="cls-2" x="138.14" y="147.04" width="14.81" height="7.4" transform="translate(-44.63 238.72) rotate(-70.83)"/><polygon class="cls-2" points="356.38 159.69 360.27 151.56 364.33 153.51 360.45 161.64 356.38 159.69"/><polygon class="cls-2" points="356.38 264.8 360.27 256.66 364.33 258.61 360.45 266.74 356.38 264.8"/><polygon class="cls-2" points="497.68 7.61 496.38 16.27 492.04 15.62 493.35 6.96 497.68 7.61"/><rect class="cls-2" x="439.51" y="6.77" width="9.33" height="4.67" transform="translate(543.27 -423.97) rotate(101.71)"/><rect class="cls-2" x="528.14" y="59.66" width="8.43" height="4.22" transform="translate(153.63 -317.42) rotate(38.42)"/><rect class="cls-2" x="231.03" y="132.55" width="16.16" height="8.07" transform="translate(409.13 -80.02) rotate(98.39)"/><rect class="cls-2" x="7.81" y="66.59" width="10.19" height="5.09" transform="translate(75.91 37.89) rotate(74.2)"/><rect class="cls-2" x="25.82" y="37.5" width="13.38" height="6.69" transform="translate(84.66 43.41) rotate(131.33)"/><rect class="cls-2" x="513.2" y="277.46" width="12.8" height="6.4" transform="matrix(-0.36, 0.93, -0.93, -0.36, 969.37, -102.04)"/><rect class="cls-2" x="47.84" y="127.12" width="16.07" height="8.03" transform="translate(58.72 273.65) rotate(-158.06)"/><rect class="cls-2" x="395.58" y="3.3" width="12.15" height="6.08" transform="translate(182.39 -330.25) rotate(56.01)"/><rect class="cls-2" x="119.42" y="20.66" width="11.11" height="5.55" transform="translate(-1.87 32.26) rotate(-14.6)"/><polygon class="cls-2" points="574.73 113.84 579.41 100.75 585.95 103.09 581.27 116.17 574.73 113.84"/><rect class="cls-2" x="608.47" y="-4.82" width="9.51" height="4.76" transform="translate(945.76 512.81) rotate(-122.61)"/><rect class="cls-2" x="264.87" y="196.07" width="16.62" height="8.31" transform="translate(301.03 537.78) rotate(-130.96)"/><rect class="cls-2" x="303.58" y="281.78" width="16.62" height="8.31" transform="translate(300.38 708.89) rotate(-130.96)"/><polygon class="cls-2" points="276.96 102.84 276.5 111.24 272.29 111.02 272.76 102.6 276.96 102.84"/><rect class="cls-2" x="241.42" y="16.29" width="7.47" height="3.73" transform="translate(23.63 -88.42) rotate(21.46)"/><rect class="cls-2" x="200.88" y="36.27" width="6.08" height="12.15" transform="translate(160.57 246.06) rotate(-89.72)"/><rect class="cls-2" x="383.95" y="51.18" width="14.77" height="7.39" transform="translate(665.6 339.35) rotate(-141.94)"/><rect class="cls-2" x="533.3" y="27.32" width="11.38" height="5.69" transform="translate(-0.84 28.92) rotate(-3.07)"/><rect class="cls-2" x="57.84" y="23.61" width="13.27" height="6.63" transform="translate(24.03 83.9) rotate(-77.3)"/><rect class="cls-2" x="285.87" y="23.65" width="13.65" height="6.82" transform="translate(400.74 -246.31) rotate(106.28)"/><polygon class="cls-2" points="218.87 101.22 208.66 99.08 209.73 93.97 219.95 96.11 218.87 101.22"/><path class="cls-3" d="M168.18.28C99.64,35.75,24.09,56.44-53.38,63.18c-2.41.48-4.81.48-7.22,1-83.25,6.26-166.49-7.21-244.35-35.22"/><path class="cls-4" d="M7.68,100.23-11.06,88.32l-14.48,16.39q-3-22.38-6-44.74,7.59-.87,15.49-2Q-7,56.71,1.66,55.21,4.68,77.72,7.68,100.23Z"/><path class="cls-2" d="M61,89.33,41.4,78.85,28.18,96.26Q23.46,74.09,18.75,51.9,27,50.15,35.5,48.14q8.09-1.92,15.85-3.92Z"/><path class="cls-5" d="M116.67,71.05,96,63,84.92,81.83q-7.33-21.49-14.69-43,7.38-2.2,15-4.71,8.7-2.85,16.89-5.82Z"/><path class="cls-4" d="M169.13,49,147.74,43,138.65,62.9l-19-41.29q7.62-3.06,15.54-6.5t15.38-6.94Q159.88,28.56,169.13,49Z"/><path class="cls-3" d="M468.45,1c64.3,33.28,135.18,52.69,207.87,59,2.26.46,4.51.46,6.77.91,78.1,5.87,156.21-6.78,229.25-33"/><path class="cls-4" d="M619,94.72l17.59-11.17L650.2,98.92q2.84-21,5.66-42-7.11-.81-14.53-1.85-8.57-1.2-16.65-2.61Q621.86,73.61,619,94.72Z"/><path class="cls-2" d="M569,84.49l18.37-9.83L599.8,91q4.43-20.81,8.84-41.62-7.73-1.65-15.71-3.53-7.59-1.79-14.87-3.68Z"/><path class="cls-5" d="M516.78,67.35l19.4-7.59,10.38,17.7q6.88-20.17,13.78-40.34-6.92-2.07-14.11-4.42-8.16-2.67-15.84-5.46Q523.58,47.3,516.78,67.35Z"/><path class="cls-4" d="M467.55,46.61,487.63,41l8.52,18.66L513.94,21q-7.16-2.88-14.58-6.09T484.93,8.35Q476.25,27.49,467.55,46.61Z"/></g></svg>