<svg xmlns="http://www.w3.org/2000/svg" viewBox="0 0 1920 1475.28"><defs><style>.cls-1{fill:none;}.cls-2{fill:#aff7f9;}.cls-3{fill:#f4c1c1;}.cls-4{fill:#f9e8b4;}</style></defs><title>backgroundDos</title><g id="Capa_2" data-name="Capa 2"><polygon class="cls-1" points="1309.63 0 1576.38 0 1435.87 93.69 1309.63 0"/><polygon class="cls-2" points="837.2 492.84 221.09 0 1309.63 0 1435.87 93.69 837.2 492.84"/><polygon class="cls-3" points="662.41 609.38 0 609.38 0 0 221.09 0 837.2 492.84 662.41 609.38"/><polygon class="cls-4" points="662.41 609.38 837.2 492.84 1435.87 93.69 1576.38 0 1920 0 1920 609.38 662.41 609.38"/></g><g id="Capa_4" data-name="Capa 4"><polygon class="cls-1" points="1907.74 1475.28 1356.9 1475.28 1613.24 1270.5 1907.74 1475.28"/><polygon class="cls-1" points="0 1219 0 609.38 0 609.38 0 1218.75 0 1219"/><polygon class="cls-2" points="1613.24 1270.5 1356.9 1475.28 0 1475.28 0 1395.61 833.86 728.58 1613.24 1270.5"/><polygon class="cls-3" points="833.86 728.58 0 1395.61 0 1219 0 1218.75 0 609.38 662.42 609.38 833.86 728.58"/><polygon class="cls-4" points="1907.74 1475.28 1613.24 1270.5 833.86 728.58 662.42 609.38 1920 609.38 1920 1475.28 1907.74 1475.28"/></g></svg>