<svg id="Capa_1" data-name="Capa 1" xmlns="http://www.w3.org/2000/svg" viewBox="0 0 1920 260.53"><defs><style>.cls-1{fill:#fff;}.cls-2{fill:none;stroke:#c9c9c9;stroke-miterlimit:10;stroke-width:2px;}.cls-3{fill:#9af8ff;}.cls-4{fill:#faedbc;}</style></defs><title>background-cumpleanios_tres</title><rect class="cls-1" x="557.85" y="19.99" width="14.28" height="7.14" transform="translate(1114.09 -111.59) rotate(163.78)"/><polygon class="cls-1" points="644.7 8.76 650.05 15.34 646.76 18.02 641.41 11.44 644.7 8.76"/><rect class="cls-1" x="167.92" y="53.95" width="8.45" height="4.22" transform="translate(190.15 236.21) rotate(-113.75)"/><rect class="cls-1" x="651.83" y="137.27" width="16.52" height="8.26" transform="translate(1296.17 -84.69) rotate(148.34)"/><rect class="cls-1" x="420.62" y="104.99" width="9.47" height="4.74" transform="translate(-9.98 53.17) rotate(-7.07)"/><polygon class="cls-1" points="908.02 50.73 904.55 41.78 909.02 40.05 912.48 48.99 908.02 50.73"/><rect class="cls-1" x="25.28" y="76.9" width="13.6" height="6.8" transform="translate(94.81 139.8) rotate(155.26)"/><rect class="cls-1" x="341.77" y="123.78" width="14.77" height="7.38" transform="translate(437.88 -233.48) rotate(83.75)"/><rect class="cls-1" x="619.27" y="49.99" width="9.09" height="4.54" transform="translate(825.84 -540.23) rotate(104.04)"/><rect class="cls-1" x="803.48" y="185.8" width="8.39" height="16.77" transform="translate(16.92 448.65) rotate(-31.36)"/><rect class="cls-1" x="697.68" y="61.96" width="4.09" height="8.19" transform="translate(55.37 346.75) rotate(-28.93)"/><polygon class="cls-1" points="654.93 47.92 656.86 58.34 651.64 59.3 649.72 48.87 654.93 47.92"/><rect class="cls-1" x="219.62" y="65.03" width="17.08" height="8.54" transform="translate(458.87 129.56) rotate(177.74)"/><polygon class="cls-1" points="222.91 206.17 226.49 220.26 219.45 222.05 215.86 207.96 222.91 206.17"/><rect class="cls-1" x="356.71" y="75.22" width="14.81" height="7.4" transform="translate(170 396.93) rotate(-70.83)"/><polygon class="cls-1" points="574.95 87.87 578.84 79.74 582.9 81.69 579.01 89.82 574.95 87.87"/><rect class="cls-1" x="8.06" y="179.48" width="12.99" height="6.5" transform="translate(84.46 13.27) rotate(26.97)"/><rect class="cls-1" x="184.71" y="149.12" width="15.24" height="7.61" transform="translate(52.45 -49.09) rotate(16.81)"/><rect class="cls-1" x="30.07" y="-3.65" width="5.41" height="10.81" transform="translate(0 3.53) rotate(-6.17)"/><rect class="cls-1" x="449.6" y="60.72" width="16.16" height="8.07" transform="translate(588.55 -378.56) rotate(98.39)"/><rect class="cls-1" x="226.38" y="-5.24" width="10.19" height="5.09" transform="translate(165.85 -224.68) rotate(74.2)"/><rect class="cls-1" x="178.78" y="7.11" width="10.04" height="5.02" transform="translate(286.45 -143.15) rotate(120.9)"/><rect class="cls-1" x="118.81" y="-4.62" width="13.01" height="6.5" transform="translate(57.36 -106.66) rotate(57.79)"/><polygon class="cls-1" points="876.05 157.56 863.38 155.11 864.61 148.78 877.27 151.23 876.05 157.56"/><polygon class="cls-1" points="1.05 35.47 8.99 29.46 11.99 33.42 4.06 39.44 1.05 35.47"/><rect class="cls-1" x="731.77" y="205.64" width="12.8" height="6.4" transform="matrix(-0.36, 0.93, -0.93, -0.36, 1200.14, -403.61)"/><rect class="cls-1" x="846.77" y="8.15" width="12.88" height="6.44" transform="translate(1553.31 499.18) rotate(-145.9)"/><rect class="cls-1" x="266.41" y="55.3" width="16.07" height="8.03" transform="translate(506.86 216.86) rotate(-158.06)"/><polygon class="cls-1" points="793.3 42.02 797.98 28.93 804.52 31.27 799.84 44.35 793.3 42.02"/><rect class="cls-1" x="483.44" y="124.25" width="16.62" height="8.31" transform="translate(717.11 583.94) rotate(-130.96)"/><polygon class="cls-1" points="495.53 31.01 495.07 39.42 490.86 39.19 491.32 30.78 495.53 31.01"/><polygon class="cls-1" points="89.25 141.77 96.56 154.38 90.26 158.03 82.95 145.42 89.25 141.77"/><rect class="cls-1" x="80.99" y="-7.81" width="10.96" height="5.48" transform="translate(45.06 71) rotate(-58.08)"/><polygon class="cls-1" points="437.44 29.39 427.23 27.25 428.3 22.14 438.51 24.28 437.44 29.39"/><rect class="cls-1" x="1665.91" y="19.99" width="14.28" height="7.14" transform="translate(3286.13 -421.01) rotate(163.78)"/><polygon class="cls-1" points="1752.76 8.76 1758.11 15.34 1754.82 18.02 1749.47 11.44 1752.76 8.76"/><rect class="cls-1" x="1275.98" y="53.95" width="8.45" height="4.22" transform="translate(1744.46 1250.44) rotate(-113.75)"/><rect class="cls-1" x="1759.89" y="137.27" width="16.52" height="8.26" transform="translate(3347.41 -666.25) rotate(148.34)"/><rect class="cls-1" x="1528.68" y="104.99" width="9.47" height="4.74" transform="translate(-1.55 189.56) rotate(-7.07)"/><rect class="cls-1" x="1133.33" y="76.9" width="13.6" height="6.8" transform="translate(2209.23 -323.92) rotate(155.26)"/><rect class="cls-1" x="1449.83" y="123.78" width="14.77" height="7.38" transform="translate(1425.37 -1334.96) rotate(83.75)"/><rect class="cls-1" x="1727.33" y="49.99" width="9.09" height="4.54" transform="translate(2202.7 -1615.2) rotate(104.04)"/><rect class="cls-1" x="1911.54" y="185.8" width="8.39" height="16.77" transform="translate(178.76 1025.24) rotate(-31.36)"/><polygon class="cls-1" points="977.14 142.19 985.82 159.27 977.28 163.6 968.6 146.53 977.14 142.19"/><rect class="cls-1" x="1805.74" y="61.96" width="4.09" height="8.19" transform="translate(193.67 882.81) rotate(-28.93)"/><polygon class="cls-1" points="1762.99 47.92 1764.92 58.34 1759.7 59.3 1757.78 48.87 1762.99 47.92"/><rect class="cls-1" x="1327.68" y="65.03" width="17.08" height="8.54" transform="translate(2674.12 85.86) rotate(177.74)"/><polygon class="cls-1" points="1330.97 206.17 1334.55 220.26 1327.51 222.05 1323.92 207.96 1330.97 206.17"/><rect class="cls-1" x="974.73" y="79.44" width="9.78" height="4.89" transform="translate(284.53 777.02) rotate(-49.78)"/><rect class="cls-1" x="1464.77" y="75.22" width="14.81" height="7.4" transform="translate(914.19 1443.54) rotate(-70.83)"/><polygon class="cls-1" points="1683.01 87.87 1686.9 79.74 1690.96 81.69 1687.07 89.82 1683.01 87.87"/><rect class="cls-1" x="1116.12" y="179.48" width="12.99" height="6.5" transform="translate(204.98 -489.29) rotate(26.97)"/><rect class="cls-1" x="1016.21" y="-3.66" width="10.86" height="5.43" transform="translate(1382.33 -956.79) rotate(110.73)"/><rect class="cls-1" x="1292.77" y="149.12" width="15.24" height="7.61" transform="translate(99.82 -369.59) rotate(16.81)"/><rect class="cls-1" x="1138.13" y="-3.65" width="5.41" height="10.81" transform="translate(6.41 122.54) rotate(-6.17)"/><rect class="cls-1" x="1557.65" y="60.72" width="16.16" height="8.07" transform="translate(1858.36 -1474.75) rotate(98.39)"/><rect class="cls-1" x="963.43" y="35.7" width="8.96" height="4.48" transform="translate(456.1 -784.46) rotate(55.86)"/><rect class="cls-1" x="1334.44" y="-5.24" width="10.19" height="5.09" transform="translate(972.15 -1290.87) rotate(74.2)"/><rect class="cls-1" x="1286.84" y="7.11" width="10.04" height="5.02" transform="matrix(-0.51, 0.86, -0.86, -0.51, 1963.59, -1093.91)"/><rect class="cls-1" x="1226.87" y="-4.62" width="13.01" height="6.5" transform="translate(574.74 -1044.16) rotate(57.79)"/><polygon class="cls-1" points="1109.11 35.47 1117.05 29.46 1120.05 33.42 1112.12 39.44 1109.11 35.47"/><rect class="cls-1" x="1839.83" y="205.64" width="12.8" height="6.4" transform="matrix(-0.36, 0.93, -0.93, -0.36, 2709.45, -1436.46)"/><polygon class="cls-1" points="1017.52 120.68 1013.48 112.61 1017.52 110.6 1021.55 118.66 1017.52 120.68"/><rect class="cls-1" x="1374.47" y="55.3" width="16.07" height="8.03" transform="translate(2642.76 630.8) rotate(-158.06)"/><polygon class="cls-1" points="1901.36 42.02 1906.04 28.93 1912.58 31.27 1907.9 44.35 1901.36 42.02"/><rect class="cls-1" x="1591.5" y="124.25" width="16.62" height="8.31" transform="translate(2551.48 1420.76) rotate(-130.96)"/><polygon class="cls-1" points="1603.59 31.01 1603.13 39.42 1598.92 39.19 1599.38 30.78 1603.59 31.01"/><polygon class="cls-1" points="1197.31 141.77 1204.62 154.38 1198.32 158.03 1191.01 145.42 1197.31 141.77"/><rect class="cls-1" x="1189.05" y="-7.81" width="10.96" height="5.48" transform="translate(567.27 1011.52) rotate(-58.08)"/><polygon class="cls-1" points="1545.5 29.39 1535.29 27.25 1536.35 22.14 1546.57 24.28 1545.5 29.39"/><path class="cls-2" d="M402.76-5C343.81,25.51,278.82,43.31,212.18,49.1c-2.07.42-4.14.42-6.21.83C134.36,55.31,62.76,43.72-4.21,19.63"/><path class="cls-3" d="M71.58,79.41l-11.85-15-16.4,9.21q3.91-18.9,7.82-37.8Q58.37,37.57,66,39.17q6.72,1.41,13.19,2.58Q75.39,60.59,71.58,79.41Z"/><path class="cls-1" d="M29.31,70.17l-11.85-15L1.06,64.39,9.7,24q7,2.31,14.46,4.53Q30.67,30.51,37,32.22Z"/><path class="cls-3" d="M213.68,87.25,198.42,75.77,184.88,88.83q-1.06-19.48-2.14-39c4.81-.12,9.74-.3,14.79-.57q7.18-.37,14-.92Z"/><path class="cls-4" d="M117,86.28,104.08,72.22,88.42,82.63q2.44-19.26,4.91-38.52,6.51,1,13.37,1.89,7.9,1,15.4,1.7Q119.57,67,117,86.28Z"/><path class="cls-4" d="M264.7,81,248.58,70.73,236.13,84.82l-5.19-38.48c4.34-.49,8.79-1.06,13.32-1.7,5.23-.73,10.32-1.54,15.26-2.39Q262.12,61.61,264.7,81Z"/><path class="cls-1" d="M165.09,88.91l-14.2-12.77L136.27,88l1.26-39c4.9.35,10,.63,15.17.81q7,.26,13.71.28Z"/><path class="cls-1" d="M310.55,71.59l-16.84-9q-5.68,7.49-11.38,15l-8.1-38.16c4.72-1,9.52-2.08,14.4-3.24q7-1.63,13.64-3.37Z"/><path class="cls-3" d="M358.45,55.88l-17.79-7-9.51,16.22q-6.33-18.49-12.64-37c4.23-1.27,8.55-2.61,12.94-4.05q7.49-2.46,14.52-5Z"/><path class="cls-4" d="M403.58,36.86l-18.4-5.11q-3.92,8.56-7.82,17.11L361.05,13.34q6.57-2.62,13.37-5.58t13.23-6Z"/><path class="cls-2" d="M1514.22-.73c59,30.51,123.94,48.31,190.58,54.1,2.07.42,4.14.42,6.21.83,71.61,5.38,143.21-6.21,210.18-30.3"/><path class="cls-3" d="M1845.4,83.69l11.85-15,16.41,9.21-7.83-37.8q-7.21,1.72-14.84,3.33-6.72,1.41-13.19,2.58Q1841.61,64.86,1845.4,83.69Z"/><path class="cls-1" d="M1887.67,74.44l11.85-15,16.4,9.2q-4.32-20.17-8.63-40.35-7,2.31-14.47,4.53-6.51,1.95-12.8,3.65Z"/><path class="cls-3" d="M1703.31,91.53,1718.56,80,1732.1,93.1q1.07-19.48,2.14-39-7.21-.16-14.79-.56-7.18-.39-14-.93Q1704.37,72.09,1703.31,91.53Z"/><path class="cls-4" d="M1800,90.55q6.46-7,12.94-14l15.67,10.4-4.92-38.52q-6.51,1-13.37,1.89-7.89,1-15.4,1.7Q1797.42,71.26,1800,90.55Z"/><path class="cls-4" d="M1652.28,85.24,1668.4,75q6.22,7.05,12.46,14.09,2.6-19.23,5.18-38.48-6.51-.73-13.32-1.69c-5.23-.74-10.32-1.55-15.26-2.4Q1654.87,65.88,1652.28,85.24Z"/><path class="cls-1" d="M1751.89,93.19l14.2-12.78,14.62,11.83-1.26-39q-7.35.53-15.17.82-7,.24-13.71.27Z"/><path class="cls-1" d="M1606.44,75.86l16.84-9,11.37,15q4-19.08,8.11-38.16c-4.73-1-9.53-2.08-14.41-3.24q-7-1.63-13.64-3.37Z"/><path class="cls-3" d="M1558.53,60.15l17.79-7,9.51,16.23q6.33-18.49,12.64-37-6.35-1.89-12.94-4.05-7.48-2.46-14.52-5Z"/><path class="cls-4" d="M1513.4,41.13,1531.8,36q3.92,8.56,7.82,17.11l16.31-35.52Q1549.38,15,1542.56,12t-13.23-6Z"/></svg>