<svg xmlns="http://www.w3.org/2000/svg" xmlns:xlink="http://www.w3.org/1999/xlink" viewBox="0 0 1920 628.54"><defs><style>.cls-1,.cls-11,.cls-5,.cls-9{fill:none;}.cls-2{fill:url(#Degradado_sin_nombre_18);}.cls-3{clip-path:url(#clip-path);}.cls-4{opacity:0.49;}.cls-11,.cls-5,.cls-9{stroke:#fff;stroke-miterlimit:10;}.cls-5{stroke-width:46px;opacity:0.23;}.cls-6,.cls-7,.cls-8{fill:#fff;}.cls-6,.cls-9{opacity:0.37;}.cls-7{opacity:0.68;}.cls-8{opacity:0.42;}.cls-11,.cls-9{stroke-linecap:round;}.cls-9{stroke-width:4px;}.cls-10{opacity:0.74;}.cls-11{stroke-width:2px;opacity:0.34;}</style><linearGradient id="Degradado_sin_nombre_18" y1="104.5" x2="1920" y2="104.5" gradientUnits="userSpaceOnUse"><stop offset="0" stop-color="#f2a9a7"/><stop offset="0.15" stop-color="#f2a09d"/><stop offset="0.41" stop-color="#f38781"/><stop offset="0.49" stop-color="#f37e78"/><stop offset="0.54" stop-color="#f38681"/><stop offset="0.7" stop-color="#f29996"/><stop offset="0.85" stop-color="#f2a5a3"/><stop offset="1" stop-color="#f2a9a7"/></linearGradient><clipPath id="clip-path"><rect class="cls-1" width="1920" height="209.35"/></clipPath></defs><g id="Capa_1" data-name="Capa 1"><rect class="cls-2" width="1920" height="209"/></g><g id="Capa_2" data-name="Capa 2"><g class="cls-3"><g class="cls-4"><circle class="cls-5" cx="982.25" cy="317.27" r="180.15"/><circle class="cls-5" cx="982.25" cy="317.27" r="288.27"/></g><path class="cls-6" d="M1920,0V209l-498.29.35c9.51-20.07,26-47.19,55-67.76,32.52-23,65.06-26.78,81.18-29.65,42.72-7.59,102.83-32.73,175.77-111.94Z"/><path class="cls-6" d="M0,209V0H554.88c-19.59,29.63-56.34,71.3-124.31,87.24-98.71,23.13-178.16-28-273.94-9.18C109.47,87.32,46.85,115.79,0,209Z"/><path class="cls-7" d="M0,80.88V0H191.12c-24.83,17.69-46.37,26.42-61.51,31.13C97.74,41,81.41,37.09,51.5,49A179.92,179.92,0,0,0,0,80.88Z"/><path class="cls-8" d="M1920,0V209H1535.35c17.56-31.17,45.23-67.24,88.94-87.18,44.21-20.16,73.09-9.35,116.47-29.64,27.49-12.86,60.6-38.1,89-91.77Z"/><path class="cls-7" d="M1920,157.82V209l-173.59.35a153.44,153.44,0,0,1,75.53-53.64C1868.63,140.88,1907.85,153.4,1920,157.82Z"/></g><path class="cls-9" d="M1329.94,86.06"/><path class="cls-9" d="M1298.88,46.53"/><g class="cls-10"><line class="cls-11" x1="388.36" y1="164.88" x2="413.64" y2="164.88"/><line class="cls-11" x1="401" y1="152.24" x2="401" y2="177.53"/></g><line class="cls-11" x1="1408.74" y1="46.53" x2="1433.26" y2="71.06"/><line class="cls-11" x1="1433.26" y1="46.53" x2="1408.74" y2="71.06"/><circle class="cls-11" cx="1377.94" cy="171.96" r="7.74"/><circle class="cls-11" cx="594.02" cy="27.96" r="7.74"/></g></svg>