<svg id="Capa_1" data-name="Capa 1" xmlns="http://www.w3.org/2000/svg" viewBox="0 0 1071.53 347"><defs><style>.cls-1{fill:#fff;}.cls-2{fill:none;stroke:#c9c9c9;stroke-miterlimit:10;stroke-width:2px;}.cls-3{fill:#9af8ff;}.cls-4{fill:#faedbc;}</style></defs><title>background-cumpleanieros</title><rect class="cls-1" x="551.33" y="91.81" width="14.28" height="7.14" transform="translate(1121.36 31.02) rotate(163.78)"/><rect class="cls-1" x="131.38" y="14.87" width="11.94" height="5.97" transform="translate(247.95 101.23) rotate(-150.39)"/><polygon class="cls-1" points="638.18 80.58 643.52 87.16 640.24 89.84 634.89 83.26 638.18 80.58"/><rect class="cls-1" x="161.39" y="125.78" width="8.45" height="4.22" transform="translate(115.26 330.99) rotate(-113.75)"/><rect class="cls-1" x="645.31" y="209.09" width="16.52" height="8.26" transform="translate(1321.8 51.69) rotate(148.34)"/><rect class="cls-1" x="414.1" y="176.81" width="9.47" height="4.74" transform="translate(-18.87 52.92) rotate(-7.07)"/><polygon class="cls-1" points="901.5 122.55 898.03 113.6 902.5 111.87 905.96 120.81 901.5 122.55"/><rect class="cls-1" x="18.75" y="148.72" width="13.6" height="6.8" transform="translate(112.42 279.58) rotate(155.26)"/><rect class="cls-1" x="420.26" y="246.51" width="14.77" height="7.38" transform="translate(629.83 -202.12) rotate(83.75)"/><rect class="cls-1" x="612.74" y="121.82" width="9.09" height="4.54" transform="translate(887.41 -444.66) rotate(104.04)"/><rect class="cls-1" x="70.38" y="14.8" width="7.52" height="3.76" transform="translate(120.83 -43.27) rotate(115.24)"/><rect class="cls-1" x="691.15" y="133.79" width="4.09" height="8.19" transform="translate(19.81 352.56) rotate(-28.93)"/><polygon class="cls-1" points="648.41 119.74 650.34 130.17 645.12 131.12 643.2 120.7 648.41 119.74"/><rect class="cls-1" x="213.09" y="136.86" width="17.08" height="8.54" transform="translate(448.66 273.41) rotate(177.74)"/><polygon class="cls-1" points="649.46 41.91 657.21 47.81 654.27 51.69 646.51 45.79 649.46 41.91"/><rect class="cls-1" x="19.05" y="15.68" width="7.84" height="15.68" transform="translate(-2.43 44.4) rotate(-85.09)"/><rect class="cls-1" x="350.19" y="147.04" width="14.81" height="7.4" transform="translate(97.78 439) rotate(-70.83)"/><polygon class="cls-1" points="568.43 159.69 572.32 151.56 576.38 153.51 572.49 161.64 568.43 159.69"/><polygon class="cls-1" points="568.43 264.8 572.32 256.66 576.38 258.61 572.49 266.74 568.43 264.8"/><rect class="cls-1" x="1.53" y="251.31" width="12.99" height="6.5" transform="translate(116.33 24.05) rotate(26.97)"/><rect class="cls-1" x="178.19" y="220.95" width="15.24" height="7.61" transform="translate(72.95 -44.14) rotate(16.81)"/><polygon class="cls-1" points="709.72 7.61 708.42 16.27 704.09 15.62 705.4 6.96 709.72 7.61"/><rect class="cls-1" x="651.55" y="6.77" width="9.33" height="4.67" transform="translate(798.37 -631.6) rotate(101.71)"/><rect class="cls-1" x="740.18" y="59.66" width="8.43" height="4.22" transform="translate(199.54 -449.18) rotate(38.42)"/><rect class="cls-1" x="23.54" y="68.17" width="5.41" height="10.81" transform="translate(-7.75 3.24) rotate(-6.17)"/><rect class="cls-1" x="443.07" y="132.55" width="16.16" height="8.07" transform="translate(652.13 -289.8) rotate(98.39)"/><rect class="cls-1" x="219.86" y="66.59" width="10.19" height="5.09" transform="translate(230.21 -166.14) rotate(74.2)"/><rect class="cls-1" x="172.26" y="78.93" width="10.04" height="5.02" transform="translate(338.2 -28.84) rotate(120.9)"/><rect class="cls-1" x="237.87" y="37.5" width="13.38" height="6.69" transform="translate(436.74 -115.82) rotate(131.33)"/><rect class="cls-1" x="112.29" y="67.21" width="13.01" height="6.5" transform="translate(115.08 -67.61) rotate(57.79)"/><polygon class="cls-1" points="869.53 229.39 856.85 226.94 858.08 220.61 870.75 223.06 869.53 229.39"/><polygon class="cls-1" points="-5.47 107.29 2.46 101.28 5.47 105.24 -2.46 111.26 -5.47 107.29"/><rect class="cls-1" x="840.25" y="79.97" width="12.88" height="6.44" transform="translate(1501.12 626.82) rotate(-145.9)"/><rect class="cls-1" x="259.89" y="127.12" width="16.07" height="8.03" transform="translate(467.45 352.87) rotate(-158.06)"/><rect class="cls-1" x="607.63" y="3.3" width="12.15" height="6.08" transform="translate(275.9 -506.07) rotate(56.01)"/><rect class="cls-1" x="331.46" y="20.66" width="11.11" height="5.55" transform="translate(4.97 85.71) rotate(-14.6)"/><polygon class="cls-1" points="786.78 113.84 791.46 100.75 798 103.09 793.32 116.17 786.78 113.84"/><rect class="cls-1" x="820.52" y="-4.82" width="9.51" height="4.76" transform="translate(1272.07 691.43) rotate(-122.61)"/><polygon class="cls-1" points="938.8 13.56 931.7 17.93 929.53 14.38 936.61 10.02 938.8 13.56"/><polygon class="cls-1" points="489.01 102.84 488.54 111.24 484.34 111.02 484.8 102.6 489.01 102.84"/><rect class="cls-1" x="453.46" y="16.29" width="7.47" height="3.73" transform="translate(38.33 -165.99) rotate(21.46)"/><rect class="cls-1" x="412.93" y="36.27" width="6.08" height="12.15" transform="translate(371.57 458.1) rotate(-89.72)"/><rect class="cls-1" x="595.99" y="51.18" width="14.77" height="7.39" transform="translate(1044.59 470.09) rotate(-141.94)"/><rect class="cls-1" x="745.34" y="27.32" width="11.38" height="5.69" transform="translate(-0.54 40.29) rotate(-3.07)"/><polygon class="cls-1" points="82.73 213.59 90.04 226.21 83.73 229.85 76.43 217.25 82.73 213.59"/><rect class="cls-1" x="74.47" y="64.01" width="10.96" height="5.48" transform="translate(-18.98 99.32) rotate(-58.08)"/><rect class="cls-1" x="269.88" y="23.61" width="13.27" height="6.63" transform="translate(189.45 290.76) rotate(-77.3)"/><rect class="cls-1" x="497.92" y="23.65" width="13.65" height="6.82" transform="translate(672.23 -449.85) rotate(106.28)"/><polygon class="cls-1" points="430.92 101.22 420.71 99.08 421.77 93.97 431.99 96.11 430.92 101.22"/><polygon class="cls-1" points="970.61 214.01 979.3 231.09 970.76 235.42 962.08 218.36 970.61 214.01"/><rect class="cls-1" x="968.2" y="151.26" width="9.78" height="4.89" transform="translate(227.38 797.48) rotate(-49.78)"/><rect class="cls-1" x="1009.69" y="68.17" width="10.86" height="5.43" transform="translate(1440.68 -853.45) rotate(110.73)"/><rect class="cls-1" x="956.91" y="107.52" width="8.96" height="4.48" transform="translate(512.68 -747.55) rotate(55.86)"/><rect class="cls-1" x="1066.43" y="6.66" width="16.73" height="8.36" transform="translate(1623.03 -913.69) rotate(120.09)"/><rect class="cls-1" x="966.78" y="44.53" width="11.48" height="5.74" transform="translate(484.4 -795.09) rotate(57.12)"/><rect class="cls-1" x="1002.91" y="23.19" width="8.71" height="4.35" transform="translate(303.78 -695.97) rotate(44.28)"/><polygon class="cls-1" points="1011 192.5 1006.96 184.44 1010.99 182.42 1015.03 190.48 1011 192.5"/><rect class="cls-1" x="962.62" y="-7.11" width="9.42" height="4.71" transform="translate(1587.95 737.26) rotate(-129.63)"/><rect class="cls-1" x="1054.34" y="57.52" width="12.78" height="6.39" transform="translate(991.71 -999.5) rotate(83)"/><rect class="cls-1" x="1024.4" y="-2.54" width="14.47" height="7.23" transform="translate(102.53 449.44) rotate(-25.82)"/><path class="cls-2" d="M372.38-5.72c-55.1,28.51-115.83,45.15-178.11,50.56-1.94.39-3.87.39-5.81.78C121.54,50.65,54.62,39.81-8,17.3"/><path class="cls-3" d="M62.86,73.17l-11.07-14-15.33,8.6q3.65-17.65,7.31-35.33c4.49,1.08,9.12,2.13,13.87,3.12Q63.93,36.88,70,38Z"/><path class="cls-1" d="M23.36,64.53l-11.08-14L-3,59.13Q1,40.28,5,21.42q6.57,2.16,13.51,4.23,6.09,1.82,12,3.42Z"/><path class="cls-3" d="M195.67,80.5,181.4,69.76,168.75,82q-1-18.21-2-36.41,6.75-.16,13.83-.53c4.47-.23,8.84-.53,13.1-.87Q194.67,62.34,195.67,80.5Z"/><path class="cls-4" d="M105.33,79.59,93.24,66.45,78.6,76.18l4.59-36q6.07,1,12.5,1.77c4.92.63,9.72,1.15,14.39,1.59Q107.71,61.56,105.33,79.59Z"/><path class="cls-4" d="M243.35,74.63l-15.06-9.58L216.65,78.23q-2.43-18-4.85-36,6.09-.69,12.45-1.58,7.33-1,14.26-2.24Q240.94,56.53,243.35,74.63Z"/><path class="cls-1" d="M150.26,82.05,137,70.11,123.32,81.17q.59-18.26,1.18-36.5,6.87.49,14.18.76c4.38.16,8.66.24,12.81.26Z"/><path class="cls-1" d="M286.2,65.86l-15.74-8.42-10.63,14q-3.78-17.83-7.58-35.67,6.63-1.41,13.47-3c4.33-1,8.58-2.08,12.75-3.15Z"/><path class="cls-3" d="M331,51.17l-16.62-6.5-8.9,15.16q-5.9-17.28-11.81-34.56,5.94-1.77,12.09-3.79,7-2.3,13.58-4.68Q325.15,34,331,51.17Z"/><path class="cls-4" d="M373.15,33.4,356,28.63l-7.31,16L333.4,11.42Q339.54,9,345.89,6.2T358.26.62Q365.7,17,373.15,33.4Z"/><path class="cls-2" d="M714.4-2c51.86,26.84,109,42.5,167.65,47.6,1.82.36,3.64.36,5.46.72,63,4.74,126-5.46,184.9-26.65"/><path class="cls-3" d="M1005.74,72.23l10.42-13.18,14.43,8.1-6.88-33.26q-6.35,1.53-13.06,2.94-5.91,1.23-11.6,2.27Z"/><path class="cls-1" d="M1042.92,64.1l10.43-13.18L1067.78,59l-7.6-35.49q-6.2,2-12.73,4-5.71,1.71-11.26,3.22Z"/><path class="cls-3" d="M880.74,79.13,894.16,69l11.91,11.49Q907,63.38,908,46.24q-6.35-.15-13-.5-6.32-.33-12.34-.81Z"/><path class="cls-4" d="M965.76,78.27l11.38-12.36,13.79,9.15-4.32-33.89q-5.73.9-11.77,1.67-6.95.88-13.55,1.49Z"/><path class="cls-4" d="M835.85,73.6l14.18-9L861,77l4.56-33.86q-5.73-.65-11.72-1.49-6.9-1-13.43-2.1Q838.12,56.57,835.85,73.6Z"/><path class="cls-1" d="M923.48,80.59,936,69.35l12.86,10.41L947.72,45.4c-4.31.31-8.76.56-13.35.72-4.12.15-8.14.22-12,.24Q922.89,63.48,923.48,80.59Z"/><path class="cls-1" d="M795.52,65.35l14.81-7.93,10,13.18Q823.9,53.82,827.47,37c-4.15-.89-8.38-1.83-12.67-2.85q-6.12-1.44-12-3Z"/><path class="cls-3" d="M753.37,51.52,769,45.41q4.2,7.13,8.38,14.27Q783,43.41,788.51,27.14q-5.58-1.66-11.38-3.56-6.58-2.16-12.78-4.41Z"/><path class="cls-4" d="M713.68,34.8l16.19-4.5,6.87,15.05,14.35-31.24c-3.85-1.55-7.77-3.18-11.76-4.92s-7.88-3.49-11.64-5.25Z"/></svg>