<svg xmlns="http://www.w3.org/2000/svg" viewBox="0 0 1749.18 393.88"><defs><style>.cls-1{fill:#fff;}</style></defs><g id="_2" data-name="2"><path class="cls-1" d="M158.66,52.31c-18.3-9.18-38.14-11-58.11-12C78,39.15,55.37,40,32.79,39.68c-2.23,0-2.67.63-2.66,2.73q.09,53.09,0,106.17t0,106.39c0,2,.42,2.63,2.54,2.62,16.11-.09,32.22,0,48.32-.07,16.38-.07,32.76.39,49.11-1.72,33-4.27,57.24-20.93,72.35-50.48,13.74-26.88,15.31-55.36,8.88-84.28C204.48,90.19,187.34,66.71,158.66,52.31Zm22,135.59c-10.34,23.56-28.64,37.3-54,41.28-23.28,3.65-46.79,2.77-70.6,2.82v-2.7q0-80.22,0-160.44c0-2.27.56-2.82,2.81-2.81,18.71,0,37.4.1,56,2.33,17.1,2.05,33,7.15,46.14,18.73,14.05,12.32,22,28.05,25,46.29C189.13,152,188.37,170.41,180.7,187.9Z"/><path class="cls-1" d="M537.79,91.87c-22.79-2.93-43.71,1.28-61.72,16.29-3.61,3-6.89,6.4-10.55,9.84,0-4.19,0-8,0-11.91,0-3.56,1.23-8.35-.58-10.35-2-2.21-6.87-.57-10.49-.65-4.88-.1-9.76,0-14.65,0V315.15c7.91,0,15.65,0,23.39,0,1.82,0,2.4-.4,2.39-2.31-.09-14.6-.05-29.21-.05-43.81v-34.3a34.62,34.62,0,0,0,2.13,2.76c21.22,20.93,46.72,28.15,75.62,22.29,39.8-8.07,72.93-48.62,64.41-99.48C601.91,125.93,571.75,96.22,537.79,91.87Zm-14.6,145.54c-29.88-.1-59.73-22.65-59.11-60.6,0-34.68,25.49-60.79,59.28-60.74,33.31.05,59.47,26.87,59.45,61C582.79,210.13,555.82,237.52,523.19,237.41Z"/><path class="cls-1" d="M326.43,91.07c-23.83-.93-44.91,5.88-61.69,23.32-21,21.84-29,48.11-24,77.88,3.74,22.27,14.77,40.88,33,54.3,22.51,16.57,48.16,18.42,74.37,12.06s43.35-24.15,54.8-48.15L381.2,199.07c-2.33,3.62-4.53,7-6.65,10.37-15.71,25.13-45.53,31.75-67.16,26.19-22.26-5.72-40-26.93-41.42-53.19-.14-2.38,1.41-1.78,2.61-1.78q67.89,0,135.79.05c2.32,0,2.83-.65,2.8-2.86a99,99,0,0,0-3.23-25.6C393.64,115.46,364.67,92.57,326.43,91.07Zm-57.31,66.55c5.65-22.52,24.1-41.16,52.48-41.69,27.79-.53,51.14,16,56.59,41.69Z"/><path class="cls-1" d="M1110.67,166.06c-4.31-41.73-37.18-74-79.61-75-23.48-.59-44.41,5.47-61.21,22.42-20.55,20.75-29.29,45.87-25.51,74.86,3.36,25.75,15.71,46.61,37.43,60.95,20.23,13.36,43,14.95,66.21,10.41,27.84-5.47,46.24-23.07,58.5-47.88.65-1.32,0-1.66-1-2.15-5.55-2.88-11.17-5.62-16.56-8.76-2.83-1.64-4.18-1.47-5.85,1.56-10.18,18.54-25,30.64-46.49,34.27a56.73,56.73,0,0,1-66.45-56H1060c16.33,0,32.66,0,49,0,1.9,0,2.45-.54,2.32-2.37C1111,174.23,1111.09,170.12,1110.67,166.06Zm-137.38-8.41c5.5-22.32,23.84-41,52-41.72,26.62-.71,51.12,14.7,57,41.72Z"/><path class="cls-1" d="M1580.15,210.47,1558.31,199c-8.18,14-17.27,26.77-33,33.11-15.39,6.2-30.93,7.65-46.52,1.58-22.62-8.82-35.37-31.49-35.46-53.1h141.13c-.24-5.94-.32-11.63-1.11-17.31-3.67-26.18-16.56-46.49-38.89-60.58-16.81-10.61-35.51-13.06-55-11.16-18.38,1.8-34.29,9.16-47.14,22.4-20.85,21.49-29.12,47.32-24.61,76.87,5,32.66,30.67,69.32,78.08,70.8,27.69.87,51.48-7,69.9-28.44A102.22,102.22,0,0,0,1580.15,210.47Zm-80.6-94.55c27.84-.22,50.69,16.68,55.84,41.7h-109C1452.11,134.8,1470.86,116.15,1499.55,115.92Z"/><path class="cls-1" d="M1260.27,172.62q.07,41.24,0,82.47c0,2,.46,2.53,2.46,2.5,7.09-.13,14.17,0,21.25,0,.71,0,1.42-.07,2.23-.11V172.91A197.58,197.58,0,0,0,1284,142c-3-19.25-12.2-34.53-29.64-43.95-22.62-12.22-53.27-8.34-73.62,8.85a133.66,133.66,0,0,0-11.36,10.91c0-7.29,0-14,0-20.67,0-.89.36-2.06-1.25-2.06h-24.47V257.54c7.82,0,15.49-.07,23.16,0,2,0,2.63-.45,2.62-2.56-.09-20.49-.06-41-.05-61.46a289.49,289.49,0,0,1,1.79-33.42c2.82-24.17,25.84-44.92,50.15-44.91,20.38,0,32.06,9.11,36.8,29C1260.3,153.53,1260.25,163.1,1260.27,172.62Z"/><path class="cls-1" d="M896.08,246.26a76.49,76.49,0,0,0,22.84-23.84L898.52,209c-.66.75-1.26,1.39-1.82,2.07-18.6,23-42.77,30.69-71.13,24.34-23.12-5.19-38.37-20.06-44.76-42.76-6.28-22.34-1.19-42.46,15.45-59.06,13.83-13.8,31-18.78,50.15-17.88,14.13.66,27,4.79,38.17,13.69a83.67,83.67,0,0,1,13.81,14.67l20.46-12.72c-5-8.85-10.86-16.53-18.83-22.25-24.1-17.34-51-21.81-79.62-15.62-48.55,10.52-78,58.8-65.33,106.12,8.84,32.94,39.83,60,79.55,61.9C856.63,262.54,877.44,258.75,896.08,246.26Z"/><path class="cls-1" d="M1367.38,254.55c-.08-44.24,0-88.48-.15-132.72,0-3.31.86-4,4-3.9,8.64.24,17.3,0,25.94.12,1.7,0,2.32-.33,2.29-2.18q-.18-9.27,0-18.54c0-2-.67-2.32-2.44-2.3-9.09.08-18.19,0-27.28.08-2,0-2.49-.62-2.48-2.54.07-17.72,0-35.45,0-53.18V36.75h-25.71v2.84c0,17.65,0,35.3.05,53,0,2-.64,2.56-2.51,2.55-7.67-.06-15.35,0-23-.06-1.61,0-2.2.39-2.18,2.11q.15,9.39,0,18.77c0,1.64.4,2.16,2.1,2.14,7.53-.09,15.06.07,22.59-.1,2.46-.06,3,.58,3,3-.08,44.54,0,89.08-.12,133.62,0,2.51.69,3.06,3.08,3q9.84-.25,19.68,0C1366.76,257.67,1367.38,257,1367.38,254.55Z"/><path class="cls-1" d="M1635.18,111.91c0-5.2-.09-9.94,0-14.68,0-1.83-.58-2.22-2.29-2.2-7.08.09-14.16.14-21.24,0-2.42,0-2.9.72-2.9,3q.11,74.17,0,148.36c0,3.2,0,6.4,0,9.6,0,.92.09,1.59,1.28,1.59,8.26,0,16.52,0,25.07,0,0-1.31,0-2.28,0-3.24.31-28.81-.79-57.63.9-86.43.65-11,2.36-21.65,7.18-31.72,7.93-16.59,20.32-22.33,37.3-17,.68.22,1.24.42,1.72-.36,4.24-6.88,8.49-13.75,12.85-20.79C1670.76,83.77,1652,92.86,1635.18,111.91Z"/><path class="cls-1" d="M731.57,110.21a139.23,139.23,0,0,0-19.41-65.08,166.34,166.34,0,0,0-13.07-18.19c2.6,16.1,5.38,31.44,6.95,47,2.16,21.33,1.64,42.53-3.17,63.46-4.76,20.71-8,41.44-4.66,62.75,3.82,24.47,13.47,46.2,30.11,65.33-2.55-14.39-5.11-28.34-6.5-42.47-2-20.51-1.42-40.87,3.1-61C728.74,144.91,732.4,127.9,731.57,110.21Z"/><path class="cls-1" d="M664,176.36q0-39.31,0-78.64c0-1.91-.3-2.76-2.52-2.71-7,.15-14,.11-21,0-1.78,0-2.24.53-2.24,2.27q.07,79.09,0,158.19c0,1.7.53,2.11,2.15,2.1,7-.09,14-.11,21,0,2,0,2.62-.5,2.61-2.58Q663.89,215.7,664,176.36Z"/><path class="cls-1" d="M651.2,30.35a19.47,19.47,0,1,0,19.3,19.73A19.39,19.39,0,0,0,651.2,30.35Z"/><path class="cls-1" d="M1384.75,315.62c-4.28.85-7.8,3.25-11.28,6.22,0-2.15.82-3.86.28-5.62h-5.13c-2.57,18.75-5.11,37.34-7.66,55.92,5.38.78,5.7.47,6.22-4.12.68-5.94,1.56-11.86,2.38-18.06,1.52,1.61,2.74,3.08,4.14,4.35a14,14,0,0,0,5.24,2.87c9.52,3,19.89-.93,25.92-9.75,4.9-7.18,5.28-17.28.89-24S1393.65,313.84,1384.75,315.62Zm.38,37.48c-8.59,0-14.42-5.67-14.44-14.09,0-10.89,7.7-18.87,18.26-18.88,8.62,0,14.45,5.78,14.46,14.38A18.39,18.39,0,0,1,1385.13,353.1Z"/><path class="cls-1" d="M1296.3,304.51c-.93,6.14-1.7,12.31-2.58,18.84-5.47-5.71-7.34-7-11.13-7.75a23,23,0,0,0-24.76,11.16c-4.45,7.67-5.12,15.8,0,23.41,4.85,7.25,12.21,9,20.49,7.43,4.36-.82,7.94-3.27,11.56-6.27-.21,2.16-.39,3.89-.56,5.69h5.35c2.59-18.87,5.17-37.61,7.74-56.33C1297.2,299.82,1297,299.87,1296.3,304.51Zm-22.47,48.59c-8.46-.15-14.2-6.22-14-14.85a18.44,18.44,0,0,1,19-18.12c8.25.16,14,6.21,13.82,14.55C1292.35,345.54,1284.47,353.28,1273.83,353.1Z"/><path class="cls-1" d="M1164.28,304.6c-.93,6.12-1.68,12.27-2.47,18.09-1.63-1.42-3.16-2.93-4.87-4.2-11.33-8.37-29.86-.61-33.62,14.05s5,26,19.75,25.5c5.65-.18,10.32-2.87,14.54-6.58.58,2-.84,3.79,0,5.6h5c2.59-18.83,5.17-37.57,7.77-56.42C1165.08,300,1165,300,1164.28,304.6ZM1142,353.1c-8.51-.1-14.3-6.1-14.17-14.71a18.44,18.44,0,0,1,18.82-18.26c8.29.11,14.06,6.06,14,14.41C1160.47,345.36,1152.59,353.22,1142,353.1Z"/><path class="cls-1" d="M835.21,307.68c-12.79,10.62-15.85,28.32-6.76,40.42,7.09,9.45,17.21,11.18,28.17,10.21,6.64-.58,12.25-3.59,17.63-7.48-1.1-1.59-2.07-3-3.12-4.48a32.23,32.23,0,0,1-16,6.6c-9.63,1.47-19.66-3.09-23.63-10.83-8.21-16,5.06-36,24.07-36.32,8.18-.14,15,3,21,8.5,1.17-1.6,2.25-3.08,3.3-4.54C869.6,298.08,847.91,297.12,835.21,307.68Z"/><path class="cls-1" d="M1493.16,323.64c-2.9-4.46-6.4-7.17-11.09-8-9.28-1.73-16.79,1.4-22.87,8.41-5.79,6.69-7,17.6-2.73,25,4.07,7.11,12.21,10.38,21.47,8.57,4.3-.84,7.86-3.18,11.41-6.23-.23,2.14-.41,3.81-.59,5.59h5.34c1.88-13.68,3.72-27.18,5.57-40.68C1494,315.51,1494,315.51,1493.16,323.64ZM1473.6,353.1c-8.66,0-14.28-5.84-14.26-14.75a18.29,18.29,0,0,1,18.57-18.22c8.31,0,14.16,5.93,14.13,14.24C1492,345.2,1484.2,353.13,1473.6,353.1Z"/><path class="cls-1" d="M922.29,317.91c-8.75-5.68-21.63-2.76-28.9,6.37-7.53,9.45-6.47,23.8,2.23,30.33,8.53,6.41,24.17,3.8,30.3-5.14l-3.74-3c-7.2,6.54-14.55,8.33-21,5.17-5.1-2.52-7.88-7.74-7.35-14.18h34.54c.9,0,2,.33,2.07-1.25C931.05,328.65,928.92,322.21,922.29,317.91ZM894.9,332.48c1.31-7.21,10.07-13.08,18.35-12.33,7,.62,12,5.72,11.82,12.33Z"/><path class="cls-1" d="M1212,318c-10.32-6.64-25.54-1.68-31.59,10.29-5.11,10.1-2.19,22.51,6.46,27.45,8.83,5,23.18,1.94,28.57-6.27l-3.74-2.94c-7.05,6.54-14.54,8.34-21,5.15-5.1-2.53-7.92-7.87-7.28-14.16H1186c10.58,0,21.17,0,31.75,0,.83,0,1.93.55,2.25-1C1221.27,329.94,1217.76,321.7,1212,318Zm1.74,14.59h-29.22c.56-6.82,9.77-13.09,18.14-12.44,7,.54,12.23,5.87,11.91,12.25A3.71,3.71,0,0,1,1213.7,332.57Z"/><path class="cls-1" d="M1344.08,317.8c-8.72-5.47-21.49-2.6-28.73,6.45-7.54,9.43-6.52,23.75,2.17,30.33,8.51,6.45,23.84,3.94,30.36-5.08l-3.77-3c-5.95,6.18-12.85,8.52-20.89,5.15-5.24-2.19-7.89-7.58-7.43-14.14h2.53q16,0,32,0c.88,0,1.88.37,2.12-1.19A18.88,18.88,0,0,0,1344.08,317.8Zm-27.15,14.66c.58-6.71,9.77-13,18.14-12.32,7,.55,12.23,5.88,11.9,12.32Z"/><path class="cls-1" d="M1603.17,315.16c-13,0-23.09,10.48-23.08,23.85,0,11.59,7.65,19.07,19.44,19.06,13.16,0,23.13-10.13,23.12-23.47C1622.64,323,1614.74,315.15,1603.17,315.16Zm-3.27,37.94c-8.8,0-14.45-5.78-14.44-14.82a17.82,17.82,0,0,1,18-18.15c8.24,0,13.84,5.88,13.84,14.49C1617.34,345,1609.74,353.08,1599.9,353.1Z"/><path class="cls-1" d="M1070.42,315.16c-14.41-.28-24.78,9.39-25.1,23.43-.23,10.67,7.33,19.2,17.28,19.47,14.46.4,25-9.08,25.34-22.82C1088.22,324.33,1080.39,315.36,1070.42,315.16Zm-5.33,37.94c-8.59,0-14.36-5.79-14.41-14.45,0-10.52,7.83-18.55,18.17-18.52,8.18,0,13.76,5.93,13.75,14.57C1082.59,345.07,1075,353.09,1065.09,353.1Z"/><path class="cls-1" d="M1653,315.59c-4,.94-7.06,3.44-10.25,6.38.26-2.21.47-4,.67-5.69-3.27-.65-5.41-.69-5.77,3.72-.68,8.2-2.18,16.34-3.3,24.51-.57,4.15-1.06,8.31-1.73,13.56,2.12-1.93,4.86.82,5.53-2.38.76-3.63.94-7.37,1.5-11,.88-5.78,1.08-11.75,4-17,3.1-5.72,10.56-8.83,16.39-7,4.82,1.56,6.58,5.47,5.68,13.17s-2,15.32-3,23.79c2.08-1.3,5,1.37,5.49-2.05,1.24-7.92,2.22-15.9,3.15-23.87C1672.63,320.35,1664.18,313,1653,315.59Z"/><path class="cls-1" d="M964.72,315.15c-5.68,0-10,2.78-14.11,6.88.25-2.24.44-4,.63-5.7-3.78-1.06-5.82-.22-5.74,4,0,2.42-.63,4.85-1,7.28-1.33,9.72-2.65,19.43-4,29.27,5,.84,5,.81,5.69-3.49.89-5.95,1.61-11.92,2.6-17.86,1.14-6.81,3.93-12.46,11.19-14.73,8.46-2.64,14.55,2.13,13.77,10.9-.27,3-.73,6.05-1.12,9.07-.7,5.4-1.42,10.8-2.12,16.09,3.87,1.06,5.54.27,5.85-3.81.58-7.7,2.2-15.32,2.7-23C979.72,320.85,973.88,315.19,964.72,315.15Z"/><path class="cls-1" d="M1521.51,324.35c7.21-5.75,20.36-6.69,26.84,3.29l4.11-2.45c-.19-.44-.26-.65-.36-.84a7.31,7.31,0,0,0-.46-.76c-5.75-8-13.8-9.42-22.82-8-15.47,2.48-24.57,21.43-16.45,34.16,7.11,11.16,28.34,11.3,37.53.2-2.27-2.53-4.36-3.68-7.26-.67-1.38,1.44-3.72,2.11-5.75,2.76-8.66,2.75-16.89.23-20.28-6.07C1512.77,338.87,1514.76,329.74,1521.51,324.35Z"/><path class="cls-1" d="M1007.51,300.7c-3.34-.79-5.72-.83-5.87,3.55-.12,3.89-.94,7.76-1.43,11.55-3,1.11-8.75-2.24-7.37,5.21h6.63c-1.65,12.2-3.26,24.07-5,36.51,2-1.23,4.87,1.4,5.61-1.93.79-3.54,1-7.2,1.49-10.81,1.07-7.91,2.15-15.82,3.26-23.9h8.21c.21-1.66.4-3.11.61-4.82h-8.15C1006.23,310.76,1006.87,305.73,1007.51,300.7Z"/><path class="cls-1" d="M1441.75,303.26c-1.08,10.25-2.81,20.43-4.24,30.65-1.07,7.68-2.1,15.37-3.15,23,3.59.77,5.86.5,6-4s1.17-9,1.8-13.45c1.81-12.93,3.61-25.86,5.51-39.51C1445.45,301.35,1442.27,298.33,1441.75,303.26Z"/><path class="cls-1" d="M1027,320.68c.21-1.82.35-3.1.51-4.5h-5.31c-1.86,13.62-3.71,27.14-5.67,41.47,2.14-1.3,4.79,1.18,5.49-2,.73-3.32,1-6.76,1.47-10.14.87-5.93,1.26-12,3.58-17.61,2-4.75,6.28-8.55,9.9-7.63,4.23,1.09,4.5-1.67,5.71-4.16C1036.48,313.73,1031.63,315.94,1027,320.68Z"/><path class="cls-1" d="M1421.9,317.58c-2,13.07-3.63,26.18-5.44,39.44h5.27c1.82-13.58,3.63-27.11,5.54-41.42C1425.22,316.9,1422.38,314.35,1421.9,317.58Z"/><path class="cls-1" d="M1565.53,320.05a19.71,19.71,0,0,1-.36,3.32L1560.5,357h5.31q2.75-20.49,5.43-40.68C1567.58,315.4,1565.38,316,1565.53,320.05Z"/><path class="cls-1" d="M1618,297.2c-3.07.25-6.31-1.7-8.62.63-3.18,3.2-5.94,6.81-8.85,10.21,4.5,1.82,6.91-1.16,9.56-3.68S1615.39,299.58,1618,297.2Z"/><path class="cls-1" d="M1570.31,299.54c-2.68,0-4.1,1.62-4.14,4.2,0,2.73,1.53,4.17,4.53,4.32,2.34-.27,4-1.69,4-4.25A3.93,3.93,0,0,0,1570.31,299.54Z"/><path class="cls-1" d="M1426.39,299.46c-2.62.18-4.21,1.52-4.29,4.13s1.3,4.35,4.13,4.39a3.91,3.91,0,0,0,4.34-4.25C1430.58,301.19,1429,299.71,1426.39,299.46Z"/></g></svg>