<svg id="Capa_1" data-name="Capa 1" xmlns="http://www.w3.org/2000/svg" viewBox="0 0 315.68 123.47"><defs><style>.cls-1,.cls-2,.cls-4{fill:none;stroke:#f79c9a;stroke-miterlimit:10;}.cls-1{stroke-width:5px;}.cls-2{stroke-width:3px;}.cls-3{fill:#f79c9a;}</style></defs><path class="cls-1" d="M274.39,120.34c-21.95,3.19-45.7-7.07-57.1-26.09s-8.73-45.84,7.28-61.2c9.88-9.47,23.58-14.16,37.2-15.46,12.05-1.16,24.74.28,35.1,6.55C314.7,34.92,322,59,316.11,79S293.91,117.5,274.39,120.34Z" transform="translate(-10.58 -2.26)"/><path class="cls-2" d="M186.79,124c-7.35,1.07-15.31-2.37-19.13-8.74s-2.92-15.36,2.44-20.5c3.31-3.17,7.9-4.74,12.47-5.18a19.15,19.15,0,0,1,11.75,2.19c6,3.62,8.41,11.68,6.45,18.38S193.33,123.08,186.79,124Z" transform="translate(-10.58 -2.26)"/><path class="cls-3" d="M165.31,74.15c.31,7.42-3.93,15-10.66,18.13s-15.57,1.33-20.14-4.54c-2.82-3.61-3.91-8.34-3.87-12.93,0-4,.94-8.23,3.39-11.47,4.21-5.57,12.47-7.16,18.94-4.52S165,67.54,165.31,74.15Z" transform="translate(-10.58 -2.26)"/><path class="cls-3" d="M148.59,31.28a12.41,12.41,0,0,1-6.8,11.57A10.88,10.88,0,0,1,128.94,40a13.16,13.16,0,0,1-2.47-8.25,12.19,12.19,0,0,1,2.16-7.32c2.68-3.55,8-4.57,12.08-2.88S148.41,27.07,148.59,31.28Z" transform="translate(-10.58 -2.26)"/><path class="cls-3" d="M113.07,62.93a8.56,8.56,0,0,1-4.7,8,7.51,7.51,0,0,1-8.87-2,9.13,9.13,0,0,1-1.7-5.7,8.42,8.42,0,0,1,1.49-5,7.25,7.25,0,0,1,8.34-2C110.48,57.34,113,60,113.07,62.93Z" transform="translate(-10.58 -2.26)"/><path class="cls-3" d="M77.3,64.57a3.93,3.93,0,0,1-2.15,3.67,3.45,3.45,0,0,1-4.07-.92,4.24,4.24,0,0,1-.79-2.61A3.94,3.94,0,0,1,71,62.39a3.33,3.33,0,0,1,3.83-.92A3.86,3.86,0,0,1,77.3,64.57Z" transform="translate(-10.58 -2.26)"/><path class="cls-4" d="M46.56,70a2.32,2.32,0,0,1-1.27,2.15,2,2,0,0,1-2.39-.53A2.52,2.52,0,0,1,42.44,70a2.34,2.34,0,0,1,.41-1.36,1.93,1.93,0,0,1,2.24-.53A2.26,2.26,0,0,1,46.56,70Z" transform="translate(-10.58 -2.26)"/><path class="cls-3" d="M52.47,106.44a3.15,3.15,0,0,1-1.73,2.94,2.76,2.76,0,0,1-3.27-.73,3.38,3.38,0,0,1-.63-2.1,3.2,3.2,0,0,1,.55-1.86,2.68,2.68,0,0,1,3.08-.73A3.1,3.1,0,0,1,52.47,106.44Z" transform="translate(-10.58 -2.26)"/><path class="cls-3" d="M49.88,32.14a3.91,3.91,0,0,1-2.15,3.67,3.46,3.46,0,0,1-4.08-.91,4.2,4.2,0,0,1-.78-2.62A3.86,3.86,0,0,1,43.55,30,3.34,3.34,0,0,1,47.39,29,3.86,3.86,0,0,1,49.88,32.14Z" transform="translate(-10.58 -2.26)"/><path class="cls-3" d="M13.64,62.23a1.73,1.73,0,0,1-.94,1.6,1.5,1.5,0,0,1-1.78-.4,1.89,1.89,0,0,1-.34-1.14,1.79,1.79,0,0,1,.3-1,1.46,1.46,0,0,1,1.67-.4A1.7,1.7,0,0,1,13.64,62.23Z" transform="translate(-10.58 -2.26)"/><path class="cls-4" d="M318.18,20.64a10.05,10.05,0,0,1-9.9-4.52A8.86,8.86,0,0,1,309.54,5.5,10.8,10.8,0,0,1,316,2.82,9.89,9.89,0,0,1,322.08,4c3.1,1.87,4.36,6,3.34,9.51S321.57,20.15,318.18,20.64Z" transform="translate(-10.58 -2.26)"/><path class="cls-4" d="M87.72,37.46a3.5,3.5,0,0,1-3.43-1.57,3.06,3.06,0,0,1,.44-3.67A3.7,3.7,0,0,1,87,31.29a3.46,3.46,0,0,1,2.1.4A3,3,0,0,1,90.22,35,3.42,3.42,0,0,1,87.72,37.46Z" transform="translate(-10.58 -2.26)"/><path class="cls-4" d="M103,104a5.75,5.75,0,0,1-5.67-2.59A5.08,5.08,0,0,1,98,95.37a6.2,6.2,0,0,1,3.7-1.53,5.65,5.65,0,0,1,3.48.65,4.87,4.87,0,0,1,1.91,5.44C106.55,101.92,104.93,103.76,103,104Z" transform="translate(-10.58 -2.26)"/><path class="cls-4" d="M188.09,44.72a15.61,15.61,0,0,1-15.36-7c-3.07-5.11-2.35-12.33,2-16.46a16.64,16.64,0,0,1,10-4.16,15.46,15.46,0,0,1,9.44,1.76c4.8,2.9,6.75,9.38,5.18,14.76S193.34,44,188.09,44.72Z" transform="translate(-10.58 -2.26)"/></svg>