<svg id="Capa_1" data-name="Capa 1" xmlns="http://www.w3.org/2000/svg" viewBox="0 0 1920 260.53"><defs><style>.cls-1{fill:#f7d0d0;}.cls-2{fill:none;stroke:#c9c9c9;stroke-miterlimit:10;stroke-width:2px;}.cls-3{fill:#9af8ff;}.cls-4{fill:#fff;}.cls-5{fill:#faedbc;}.cls-6{fill:#f9bcbb;}</style></defs><rect class="cls-1" x="557.87" y="20.03" width="14.28" height="7.14" transform="translate(15.9 158.76) rotate(-16.22)"/><polygon class="cls-1" points="644.7 8.76 650.05 15.34 646.76 18.02 641.41 11.44 644.7 8.76"/><rect class="cls-1" x="170.02" y="51.84" width="4.22" height="8.45" transform="translate(-8 74.07) rotate(-23.75)"/><rect class="cls-1" x="651.84" y="137.29" width="16.52" height="8.26" transform="translate(24.01 367.52) rotate(-31.66)"/><rect class="cls-1" x="420.62" y="104.99" width="9.47" height="4.74" transform="translate(-9.98 53.17) rotate(-7.07)"/><polygon class="cls-1" points="908.02 50.73 904.55 41.78 909.02 40.05 912.48 48.99 908.02 50.73"/><rect class="cls-1" x="25.27" y="76.9" width="13.6" height="6.8" transform="translate(-30.66 20.79) rotate(-24.74)"/><rect class="cls-1" x="345.49" y="120.09" width="7.38" height="14.77" transform="translate(-11.8 38.77) rotate(-6.25)"/><rect class="cls-1" x="619.26" y="50" width="9.09" height="4.54" transform="translate(421.76 644.76) rotate(-75.96)"/><rect class="cls-1" x="803.47" y="185.76" width="8.39" height="16.77" transform="translate(16.95 448.68) rotate(-31.36)"/><rect class="cls-1" x="697.69" y="61.98" width="4.09" height="8.19" transform="translate(55.35 346.73) rotate(-28.93)"/><polygon class="cls-1" points="654.93 47.92 656.86 58.34 651.64 59.3 649.72 48.87 654.93 47.92"/><rect class="cls-1" x="219.61" y="65.04" width="17.08" height="8.54" transform="translate(-2.56 9.05) rotate(-2.26)"/><polygon class="cls-1" points="222.91 206.17 226.49 220.26 219.45 222.05 215.86 207.96 222.91 206.17"/><rect class="cls-1" x="356.7" y="75.22" width="14.81" height="7.4" transform="translate(170 396.92) rotate(-70.83)"/><polygon class="cls-1" points="574.95 87.87 578.84 79.74 582.9 81.69 579.01 89.82 574.95 87.87"/><rect class="cls-1" x="11.31" y="176.23" width="6.5" height="12.99" transform="translate(-154.9 112.83) rotate(-63.03)"/><rect class="cls-1" x="188.53" y="145.3" width="7.61" height="15.24" transform="translate(-9.67 292.81) rotate(-73.19)"/><rect class="cls-1" x="30.07" y="-3.65" width="5.41" height="10.81" transform="translate(0 3.53) rotate(-6.17)"/><rect class="cls-1" x="449.63" y="60.74" width="16.16" height="8.07" transform="translate(326.84 508.13) rotate(-81.61)"/><rect class="cls-1" x="228.92" y="-7.78" width="5.09" height="10.19" transform="translate(9.48 62.92) rotate(-15.8)"/><rect class="cls-1" x="178.79" y="7.11" width="10.04" height="5.02" transform="matrix(0.51, -0.86, 0.86, 0.51, 81.16, 162.4)"/><rect class="cls-1" x="122.07" y="-7.87" width="6.5" height="13.01" transform="translate(20.01 66.59) rotate(-32.21)"/><polygon class="cls-1" points="876.05 157.56 863.38 155.11 864.61 148.78 877.27 151.23 876.05 157.56"/><polygon class="cls-1" points="1.05 35.47 8.99 29.46 11.99 33.42 4.06 39.44 1.05 35.47"/><rect class="cls-1" x="733.8" y="204.51" width="12.76" height="6.38" transform="translate(279.28 822.99) rotate(-68.84)"/><rect class="cls-1" x="849.96" y="4.98" width="6.44" height="12.88" transform="translate(365.39 711.5) rotate(-55.9)"/><rect class="cls-1" x="270.44" y="51.26" width="8.03" height="16.07" transform="translate(116.9 291.72) rotate(-68.06)"/><polygon class="cls-1" points="793.3 42.02 797.98 28.93 804.52 31.27 799.84 44.35 793.3 42.02"/><rect class="cls-1" x="487.56" y="120.1" width="8.31" height="16.62" transform="translate(36.21 353.78) rotate(-40.96)"/><polygon class="cls-1" points="495.53 31.01 495.07 39.42 490.86 39.19 491.32 30.78 495.53 31.01"/><polygon class="cls-1" points="89.25 141.77 96.56 154.38 90.26 158.03 82.95 145.42 89.25 141.77"/><rect class="cls-1" x="81" y="-7.82" width="10.96" height="5.48" transform="translate(45.06 71.01) rotate(-58.08)"/><polygon class="cls-1" points="437.44 29.39 427.23 27.25 428.3 22.14 438.51 24.28 437.44 29.39"/><rect class="cls-1" x="1665.95" y="20.12" width="14.28" height="7.14" transform="translate(59.98 468.28) rotate(-16.22)"/><polygon class="cls-1" points="1752.76 8.76 1758.11 15.34 1754.82 18.02 1749.47 11.44 1752.76 8.76"/><rect class="cls-1" x="1278.06" y="51.85" width="4.22" height="8.45" transform="translate(85.83 520.33) rotate(-23.75)"/><rect class="cls-1" x="1759.92" y="137.33" width="16.52" height="8.26" transform="translate(188.9 949.13) rotate(-31.66)"/><rect class="cls-1" x="1528.68" y="105" width="9.47" height="4.74" transform="translate(-1.56 189.55) rotate(-7.07)"/><rect class="cls-1" x="1133.34" y="76.9" width="13.6" height="6.8" transform="translate(71.04 484.52) rotate(-24.74)"/><rect class="cls-1" x="1453.61" y="120.09" width="7.38" height="14.77" transform="translate(-5.22 159.41) rotate(-6.25)"/><rect class="cls-1" x="1727.3" y="49.99" width="9.09" height="4.54" transform="translate(1261.01 1719.69) rotate(-75.96)"/><rect class="cls-1" x="1911.5" y="185.7" width="8.39" height="16.77" transform="translate(178.85 1025.3) rotate(-31.36)"/><polygon class="cls-1" points="977.14 142.19 985.82 159.27 977.28 163.6 968.6 146.53 977.14 142.19"/><rect class="cls-1" x="1805.77" y="62.03" width="4.09" height="8.19" transform="translate(193.61 882.77) rotate(-28.93)"/><polygon class="cls-1" points="1762.99 47.92 1764.92 58.34 1759.7 59.3 1757.78 48.87 1762.99 47.92"/><rect class="cls-1" x="1327.67" y="65.04" width="17.08" height="8.54" transform="translate(-1.69 52.75) rotate(-2.26)"/><polygon class="cls-1" points="1330.97 206.17 1334.55 220.26 1327.51 222.05 1323.92 207.96 1330.97 206.17"/><rect class="cls-1" x="974.73" y="79.44" width="9.78" height="4.89" transform="translate(284.53 777.02) rotate(-49.78)"/><rect class="cls-1" x="1464.75" y="75.21" width="14.81" height="7.4" transform="translate(914.2 1443.52) rotate(-70.83)"/><polygon class="cls-1" points="1683.01 87.87 1686.9 79.74 1690.96 81.69 1687.07 89.82 1683.01 87.87"/><rect class="cls-1" x="1119.38" y="176.2" width="6.5" height="12.99" transform="translate(450.66 1100.38) rotate(-63.03)"/><rect class="cls-1" x="1016.16" y="-3.67" width="10.86" height="5.43" transform="translate(660.88 954.83) rotate(-69.27)"/><rect class="cls-1" x="1296.61" y="145.25" width="7.61" height="15.24" transform="translate(778 1353.51) rotate(-73.19)"/><rect class="cls-1" x="1138.12" y="-3.74" width="5.41" height="10.81" transform="translate(6.43 122.62) rotate(-6.17)"/><rect class="cls-1" x="1557.76" y="60.74" width="16.16" height="8.07" transform="translate(1273.29 1604.41) rotate(-81.61)"/><rect class="cls-1" x="965.67" y="33.46" width="4.48" height="8.96" transform="translate(145.51 549.74) rotate(-34.14)"/><rect class="cls-1" x="1336.93" y="-7.77" width="5.09" height="10.19" transform="translate(51.34 364.61) rotate(-15.8)"/><rect class="cls-1" x="1291.45" y="9.67" width="10.04" height="5.02" transform="translate(624.69 1121.1) rotate(-59.33)"/><rect class="cls-1" x="1230.07" y="-7.84" width="6.5" height="13.01" transform="translate(190.52 657.18) rotate(-32.21)"/><polygon class="cls-1" points="1109.11 35.47 1117.05 29.46 1120.05 33.42 1112.12 39.44 1109.11 35.47"/><rect class="cls-1" x="1844.2" y="202.16" width="12.76" height="6.38" transform="translate(991.03 1857.02) rotate(-68.84)"/><polygon class="cls-1" points="1017.52 120.68 1013.48 112.61 1017.52 110.6 1021.55 118.66 1017.52 120.68"/><rect class="cls-1" x="1378.53" y="51.19" width="8.03" height="16.07" transform="translate(811.04 1319.51) rotate(-68.06)"/><polygon class="cls-1" points="1901.36 42.02 1906.04 28.93 1912.58 31.27 1907.9 44.35 1901.36 42.02"/><rect class="cls-1" x="1595.57" y="120.15" width="8.31" height="16.62" transform="translate(307.45 1080.12) rotate(-40.96)"/><polygon class="cls-1" points="1603.59 31.01 1603.13 39.42 1598.92 39.19 1599.38 30.78 1603.59 31.01"/><polygon class="cls-1" points="1197.31 141.77 1204.62 154.38 1198.32 158.03 1191.01 145.42 1197.31 141.77"/><rect class="cls-1" x="1189.08" y="-7.8" width="10.96" height="5.48" transform="translate(567.25 1011.54) rotate(-58.08)"/><polygon class="cls-1" points="1545.5 29.39 1535.29 27.25 1536.35 22.14 1546.57 24.28 1545.5 29.39"/><path class="cls-2" d="M1514.22-.73c59,30.51,123.94,48.31,190.58,54.1,2.07.42,4.14.42,6.21.83,71.61,5.38,143.21-6.21,210.18-30.3"/><path class="cls-3" d="M1845.4,83.69l11.85-15,16.41,9.21-7.83-37.8q-7.21,1.73-14.84,3.33-6.72,1.41-13.19,2.58Q1841.61,64.86,1845.4,83.69Z"/><path class="cls-4" d="M1887.67,74.44l11.85-15,16.4,9.2q-4.32-20.18-8.63-40.35-7,2.31-14.47,4.53-6.51,1.95-12.8,3.65Z"/><path class="cls-3" d="M1703.31,91.53,1718.56,80l13.54,13.1q1.07-19.48,2.14-39-7.21-.16-14.79-.56-7.18-.39-14-.93Q1704.37,72.1,1703.31,91.53Z"/><path class="cls-5" d="M1800,90.55l12.94-14L1828.61,87l-4.92-38.52q-6.51,1-13.37,1.89-7.89,1-15.4,1.7Q1797.42,71.26,1800,90.55Z"/><path class="cls-5" d="M1652.28,85.24,1668.4,75q6.22,7.05,12.46,14.09,2.6-19.23,5.18-38.48-6.51-.73-13.32-1.69c-5.23-.74-10.32-1.55-15.26-2.4Q1654.87,65.88,1652.28,85.24Z"/><path class="cls-6" d="M1751.89,93.19l14.2-12.78,14.62,11.83-1.26-39q-7.35.52-15.17.82-7,.24-13.71.27Z"/><path class="cls-6" d="M1606.44,75.86l16.84-9,11.37,15q4-19.08,8.11-38.16-7.1-1.5-14.41-3.24-7-1.64-13.64-3.37Z"/><path class="cls-3" d="M1558.53,60.15l17.79-7,9.51,16.23q6.33-18.49,12.64-37-6.35-1.89-12.94-4.05-7.48-2.46-14.52-5Z"/><path class="cls-5" d="M1513.4,41.13,1531.8,36q3.92,8.56,7.82,17.11l16.31-35.52q-6.56-2.6-13.37-5.59t-13.23-6Z"/><path class="cls-2" d="M402.76-5C343.81,25.51,278.82,43.31,212.18,49.1c-2.07.42-4.14.42-6.21.83C134.36,55.31,62.76,43.72-4.21,19.63"/><path class="cls-3" d="M71.58,79.41l-11.85-15-16.4,9.21q3.91-18.9,7.82-37.8Q58.37,37.58,66,39.17q6.72,1.41,13.19,2.58Q75.4,60.59,71.58,79.41Z"/><path class="cls-4" d="M29.31,70.17l-11.85-15L1.06,64.39,9.7,24q7,2.31,14.46,4.53,6.51,2,12.84,3.69Z"/><path class="cls-3" d="M213.68,87.25,198.42,75.77,184.88,88.83q-1.06-19.48-2.14-39c4.81-.12,9.74-.3,14.79-.57q7.18-.37,14-.92Z"/><path class="cls-5" d="M117,86.28,104.08,72.22,88.42,82.63q2.44-19.26,4.91-38.52,6.51,1,13.37,1.89,7.9,1,15.4,1.7Q119.57,67,117,86.28Z"/><path class="cls-5" d="M264.7,81,248.58,70.73,236.13,84.82l-5.19-38.48c4.34-.49,8.79-1.06,13.32-1.7,5.23-.73,10.32-1.54,15.26-2.39Q262.12,61.61,264.7,81Z"/><path class="cls-6" d="M165.09,88.91l-14.2-12.77L136.27,88l1.26-39c4.9.35,10,.63,15.17.81q7,.25,13.71.28Z"/><path class="cls-6" d="M310.55,71.59l-16.84-9-11.38,15-8.1-38.16q7.08-1.5,14.4-3.24,7-1.63,13.64-3.37Z"/><path class="cls-3" d="M358.45,55.88l-17.79-7L331.15,65.1q-6.33-18.49-12.64-37c4.23-1.27,8.55-2.61,12.94-4.05q7.49-2.46,14.52-5Z"/><path class="cls-5" d="M403.58,36.86l-18.4-5.11q-3.92,8.56-7.82,17.11L361.05,13.34q6.57-2.62,13.37-5.58t13.23-6Z"/></svg>