<?xml version="1.0" encoding="utf-8"?>
<!-- Generator: Adobe Illustrator 25.2.0, SVG Export Plug-In . SVG Version: 6.00 Build 0)  -->
<svg version="1.1" xmlns="http://www.w3.org/2000/svg" xmlns:xlink="http://www.w3.org/1999/xlink" x="0px" y="0px"
	 viewBox="0 0 1071.5 347" style="enable-background:new 0 0 1071.5 347;" xml:space="preserve">
<style type="text/css">
	.st0{display:none;}
	.st1{display:inline;fill:#FF9F9F;}
	.st2{fill:#F7D0D0;}
	.st3{fill:none;stroke:#C9C9C9;stroke-width:2;stroke-miterlimit:10;}
	.st4{fill:#9AF8FF;}
	.st5{fill:#F9BCBB;}
	.st6{fill:#FAEDBC;}
</style>
<g id="Capa_2" class="st0">
	<rect x="-35.6" y="-5" class="st1" width="1203.9" height="352"/>
</g>
<g id="Capa_1">
	<g>
		
			<rect x="551.3" y="91.9" transform="matrix(0.9602 -0.2793 0.2793 0.9602 -4.4271 159.7959)" class="st2" width="14.3" height="7.1"/>
		
			<rect x="134.4" y="11.9" transform="matrix(0.4941 -0.8694 0.8694 0.4941 53.9779 128.4478)" class="st2" width="6" height="11.9"/>
		<polygon class="st2" points="638.2,80.6 643.5,87.2 640.2,89.8 634.9,83.3 		"/>
		
			<rect x="163.5" y="123.7" transform="matrix(0.9153 -0.4027 0.4027 0.9153 -37.4827 77.5333)" class="st2" width="4.2" height="8.4"/>
		
			<rect x="645.3" y="209.1" transform="matrix(0.8512 -0.5249 0.5249 0.8512 -14.6606 374.786)" class="st2" width="16.5" height="8.3"/>
		
			<rect x="414.1" y="176.8" transform="matrix(0.9924 -0.1231 0.1231 0.9924 -18.87 52.9133)" class="st2" width="9.5" height="4.7"/>
		<polygon class="st2" points="901.5,122.6 898,113.6 902.5,111.9 906,120.8 		"/>
		
			<rect x="18.8" y="148.7" transform="matrix(0.9082 -0.4185 0.4185 0.9082 -61.3149 24.6555)" class="st2" width="13.6" height="6.8"/>
		
			<rect x="424" y="242.8" transform="matrix(0.9941 -0.1089 0.1089 0.9941 -24.6989 48.0467)" class="st2" width="7.4" height="14.8"/>
		
			<rect x="612.7" y="121.8" transform="matrix(0.2426 -0.9701 0.9701 0.2426 347.1501 692.8126)" class="st2" width="9.1" height="4.5"/>
		
			<rect x="70.4" y="14.8" transform="matrix(0.4264 -0.9045 0.9045 0.4264 27.4323 76.6183)" class="st2" width="7.5" height="3.8"/>
		
			<rect x="691.2" y="133.8" transform="matrix(0.8752 -0.4837 0.4837 0.8752 19.7903 352.5402)" class="st2" width="4.1" height="8.2"/>
		<polygon class="st2" points="648.4,119.7 650.3,130.2 645.1,131.1 643.2,120.7 		"/>
		
			<rect x="213.1" y="136.9" transform="matrix(0.9992 -3.943412e-02 3.943412e-02 0.9992 -5.3929 8.8498)" class="st2" width="17.1" height="8.5"/>
		<polygon class="st2" points="649.5,41.9 657.2,47.8 654.3,51.7 646.5,45.8 		"/>
		
			<rect x="19" y="15.7" transform="matrix(8.559088e-02 -0.9963 0.9963 8.559088e-02 -2.4373 44.3991)" class="st2" width="7.8" height="15.7"/>
		
			<rect x="350.2" y="147" transform="matrix(0.3284 -0.9445 0.9445 0.3284 97.7897 438.9933)" class="st2" width="14.8" height="7.4"/>
		<polygon class="st2" points="568.4,159.7 572.3,151.6 576.4,153.5 572.5,161.6 		"/>
		<polygon class="st2" points="568.4,264.8 572.3,256.7 576.4,258.6 572.5,266.7 		"/>
		
			<rect x="4.8" y="248.1" transform="matrix(0.4535 -0.8912 0.8912 0.4535 -222.4893 146.273)" class="st2" width="6.5" height="13"/>
		
			<rect x="182" y="217.1" transform="matrix(0.2892 -0.9573 0.9573 0.2892 -83.0614 337.6314)" class="st2" width="7.6" height="15.2"/>
		<polygon class="st2" points="709.7,7.6 708.4,16.3 704.1,15.6 705.4,7 		"/>
		
			<rect x="651.6" y="6.8" transform="matrix(0.203 -0.9792 0.9792 0.203 514.1549 649.8723)" class="st2" width="9.3" height="4.7"/>
		
			<rect x="742.3" y="57.6" transform="matrix(0.6214 -0.7835 0.7835 0.6214 233.3855 606.5927)" class="st2" width="4.2" height="8.4"/>
		
			<rect x="23.5" y="68.2" transform="matrix(0.9942 -0.1075 0.1075 0.9942 -7.7549 3.2475)" class="st2" width="5.4" height="10.8"/>
		
			<rect x="443.1" y="132.6" transform="matrix(0.1459 -0.9893 0.9893 0.1459 250.2169 563.013)" class="st2" width="16.2" height="8.1"/>
		
			<rect x="222.4" y="64" transform="matrix(0.9622 -0.2723 0.2723 0.9622 -10.3268 63.8584)" class="st2" width="5.1" height="10.2"/>
		<rect x="172.3" y="78.9" transform="matrix(0.5135 -0.8581 0.8581 0.5135 16.3451 191.741)" class="st2" width="10" height="5"/>
		
			<rect x="237.9" y="37.5" transform="matrix(0.6604 -0.7509 0.7509 0.6604 52.3791 197.5197)" class="st2" width="13.4" height="6.7"/>
		<rect x="115.5" y="64" transform="matrix(0.8461 -0.533 0.533 0.8461 -19.2756 74.1586)" class="st2" width="6.5" height="13"/>
		<polygon class="st2" points="869.5,229.4 856.8,226.9 858.1,220.6 870.8,223.1 		"/>
		<polygon class="st2" points="-5.5,107.3 2.5,101.3 5.5,105.2 -2.5,111.3 		"/>
		
			<rect x="843.4" y="76.8" transform="matrix(0.5606 -0.8281 0.8281 0.5606 303.0517 737.6517)" class="st2" width="6.4" height="12.9"/>
		
			<rect x="263.9" y="123.1" transform="matrix(0.3736 -0.9276 0.9276 0.3736 46.19 330.6543)" class="st2" width="8" height="16.1"/>
		
			<rect x="610.7" y="0.2" transform="matrix(0.8291 -0.559 0.559 0.8291 101.3331 344.1866)" class="st2" width="6.1" height="12.2"/>
		
			<rect x="331.5" y="20.7" transform="matrix(0.9677 -0.2521 0.2521 0.9677 4.9745 85.7066)" class="st2" width="11.1" height="5.5"/>
		<polygon class="st2" points="786.8,113.8 791.5,100.8 798,103.1 793.3,116.2 		"/>
		
			<rect x="822.9" y="-7.2" transform="matrix(0.8424 -0.5389 0.5389 0.8424 131.4061 444.3634)" class="st2" width="4.8" height="9.5"/>
		<polygon class="st2" points="938.8,13.6 931.7,17.9 929.5,14.4 936.6,10 		"/>
		<polygon class="st2" points="489,102.8 488.5,111.2 484.3,111 484.8,102.6 		"/>
		
			<rect x="455.3" y="14.4" transform="matrix(0.3659 -0.9307 0.9307 0.3659 273.0124 437.0155)" class="st2" width="3.7" height="7.5"/>
		
			<rect x="412.9" y="36.3" transform="matrix(4.886881e-03 -1 1 4.886881e-03 371.5732 458.0773)" class="st2" width="6.1" height="12.1"/>
		
			<rect x="599.6" y="47.5" transform="matrix(0.6165 -0.7874 0.7874 0.6165 188.1553 496.1106)" class="st2" width="7.4" height="14.8"/>
		
			<rect x="745.3" y="27.3" transform="matrix(0.9986 -5.355597e-02 5.355597e-02 0.9986 -0.539 40.2653)" class="st2" width="11.4" height="5.7"/>
		<polygon class="st2" points="82.7,213.6 90,226.2 83.7,229.9 76.4,217.2 		"/>
		<rect x="74.5" y="64" transform="matrix(0.5287 -0.8488 0.8488 0.5287 -18.9815 99.3177)" class="st2" width="11" height="5.5"/>
		
			<rect x="269.9" y="23.6" transform="matrix(0.2198 -0.9755 0.9755 0.2198 189.4474 290.7513)" class="st2" width="13.3" height="6.6"/>
		
			<rect x="497.9" y="23.7" transform="matrix(0.2803 -0.9599 0.9599 0.2803 337.2739 504.0016)" class="st2" width="13.6" height="6.8"/>
		<polygon class="st2" points="430.9,101.2 420.7,99.1 421.8,94 432,96.1 		"/>
		<polygon class="st2" points="970.6,214 979.3,231.1 970.8,235.4 962.1,218.4 		"/>
		
			<rect x="968.2" y="151.3" transform="matrix(0.6457 -0.7636 0.7636 0.6457 227.3761 797.4799)" class="st2" width="9.8" height="4.9"/>
		
			<rect x="1009.6" y="68.1" transform="matrix(0.354 -0.9353 0.9353 0.354 589.498 995.1284)" class="st2" width="10.9" height="5.4"/>
		
			<rect x="959.1" y="105.3" transform="matrix(0.8277 -0.5612 0.5612 0.8277 104.0763 558.46)" class="st2" width="4.5" height="9"/>
		
			<rect x="1066.4" y="6.6" transform="matrix(0.5014 -0.8652 0.8652 0.5014 526.5642 935.352)" class="st2" width="16.7" height="8.4"/>
		
			<rect x="969.7" y="41.6" transform="matrix(0.8398 -0.5429 0.5429 0.8398 130.0759 535.5714)" class="st2" width="5.7" height="11.5"/>
		
			<rect x="1005" y="21.1" transform="matrix(0.6982 -0.7159 0.7159 0.6982 285.8061 728.7723)" class="st2" width="4.4" height="8.7"/>
		<polygon class="st2" points="1011,192.5 1007,184.4 1011,182.4 1015,190.5 		"/>
		
			<rect x="964.9" y="-9.4" transform="matrix(0.7702 -0.6378 0.6378 0.7702 225.3186 615.8835)" class="st2" width="4.7" height="9.4"/>
		
			<rect x="1057.5" y="54.3" transform="matrix(0.9925 -0.1219 0.1219 0.9925 0.5062 129.7216)" class="st2" width="6.4" height="12.8"/>
		
			<rect x="1024.4" y="-2.5" transform="matrix(0.9002 -0.4355 0.4355 0.9002 102.52 449.435)" class="st2" width="14.5" height="7.2"/>
	</g>
	<g>
		<path class="st3" d="M714.4-2c51.9,26.8,109,42.5,167.7,47.6c1.8,0.4,3.6,0.4,5.5,0.7c63,4.7,126-5.5,184.9-26.6"/>
		<path class="st4" d="M1005.7,72.2l10.4-13.2l14.4,8.1l-6.9-33.3c-4.2,1-8.6,2-13.1,2.9c-3.9,0.8-7.8,1.6-11.6,2.3L1005.7,72.2z"/>
		<path class="st5" d="M1042.9,64.1l10.4-13.2l14.4,8.1l-7.6-35.5c-4.1,1.3-8.4,2.7-12.7,4c-3.8,1.1-7.6,2.2-11.3,3.2L1042.9,64.1z"
			/>
		<path class="st4" d="M880.7,79.1L894.2,69l11.9,11.5c0.6-11.4,1.3-22.8,1.9-34.2c-4.2-0.1-8.6-0.3-13-0.5
			c-4.2-0.2-8.3-0.5-12.3-0.8L880.7,79.1z"/>
		<path class="st6" d="M965.8,78.3l11.4-12.4l13.8,9.2l-4.3-33.9c-3.8,0.6-7.7,1.2-11.8,1.7c-4.6,0.6-9.2,1.1-13.5,1.5L965.8,78.3z"
			/>
		<path class="st6" d="M835.8,73.6l14.2-9L861,77l4.6-33.9c-3.8-0.4-7.7-0.9-11.7-1.5c-4.6-0.7-9.1-1.4-13.4-2.1
			C838.9,50.9,837.4,62.2,835.8,73.6z"/>
		<path class="st5" d="M923.5,80.6L936,69.3l12.9,10.4l-1.1-34.4c-4.3,0.3-8.8,0.6-13.3,0.7c-4.1,0.2-8.1,0.2-12,0.2
			C922.7,57.8,923.1,69.2,923.5,80.6z"/>
		<path class="st5" d="M795.5,65.3l14.8-7.9l10,13.2c2.4-11.2,4.8-22.4,7.1-33.6c-4.2-0.9-8.4-1.8-12.7-2.8c-4.1-1-8.1-2-12-3
			L795.5,65.3z"/>
		<path class="st4" d="M753.4,51.5l15.6-6.1c2.8,4.8,5.6,9.5,8.4,14.3c3.7-10.8,7.5-21.7,11.1-32.5c-3.7-1.1-7.5-2.3-11.4-3.6
			c-4.4-1.4-8.6-2.9-12.8-4.4L753.4,51.5z"/>
		<path class="st6" d="M713.7,34.8l16.2-4.5l6.9,15l14.3-31.2c-3.8-1.6-7.8-3.2-11.8-4.9s-7.9-3.5-11.6-5.2L713.7,34.8z"/>
	</g>
	<g>
		<path class="st3" d="M372.4-5.7c-55.1,28.5-115.8,45.2-178.1,50.6c-1.9,0.4-3.9,0.4-5.8,0.8C121.5,50.7,54.6,39.8-8,17.3"/>
		<path class="st4" d="M62.9,73.2l-11.1-14l-15.3,8.6c2.4-11.8,4.9-23.5,7.3-35.3c4.5,1.1,9.1,2.1,13.9,3.1C61.8,36.4,66,37.3,70,38
			L62.9,73.2z"/>
		<path class="st5" d="M23.4,64.5l-11.1-14L-3,59.1C-0.3,46.6,2.3,34,5,21.4c4.4,1.4,8.9,2.8,13.5,4.2c4.1,1.2,8.1,2.4,12,3.4
			L23.4,64.5z"/>
		<path class="st4" d="M195.7,80.5l-14.3-10.7L168.8,82c-0.7-12.1-1.3-24.3-2-36.4c4.5-0.1,9.1-0.3,13.8-0.5
			c4.5-0.2,8.8-0.5,13.1-0.9C194.3,56.3,195,68.4,195.7,80.5z"/>
		<path class="st6" d="M105.3,79.6L93.2,66.4l-14.6,9.7l4.6-36c4,0.7,8.2,1.3,12.5,1.8c4.9,0.6,9.7,1.2,14.4,1.6
			C108.5,55.6,106.9,67.6,105.3,79.6z"/>
		<path class="st6" d="M243.4,74.6L228.3,65l-11.6,13.2c-1.6-12-3.2-24-4.9-36c4.1-0.5,8.2-1,12.4-1.6c4.9-0.7,9.6-1.4,14.3-2.2
			C240.1,50.5,241.7,62.6,243.4,74.6z"/>
		<path class="st5" d="M150.3,82.1L137,70.1l-13.7,11.1c0.4-12.2,0.8-24.3,1.2-36.5c4.6,0.3,9.3,0.6,14.2,0.8
			c4.4,0.2,8.7,0.2,12.8,0.3L150.3,82.1z"/>
		<path class="st5" d="M286.2,65.9l-15.7-8.4l-10.6,14c-2.5-11.9-5-23.8-7.6-35.7c4.4-0.9,8.9-1.9,13.5-3c4.3-1,8.6-2.1,12.8-3.1
			L286.2,65.9z"/>
		<path class="st4" d="M331,51.2l-16.6-6.5l-8.9,15.2c-3.9-11.5-7.9-23-11.8-34.6c4-1.2,8-2.4,12.1-3.8c4.7-1.5,9.2-3.1,13.6-4.7
			C323.2,28.3,327.1,39.7,331,51.2z"/>
		<path class="st6" d="M373.1,33.4L356,28.6l-7.3,16l-15.3-33.2c4.1-1.6,8.3-3.4,12.5-5.2s8.4-3.7,12.4-5.6
			C363.2,11.5,368.2,22.5,373.1,33.4z"/>
	</g>
</g>
</svg>
