<?xml version="1.0" encoding="utf-8"?>
<!-- Generator: Adobe Illustrator 25.2.0, SVG Export Plug-In . SVG Version: 6.00 Build 0)  -->
<svg version="1.1" id="Capa_1" xmlns="http://www.w3.org/2000/svg" xmlns:xlink="http://www.w3.org/1999/xlink" x="0px" y="0px"
	 viewBox="0 0 620 347" style="enable-background:new 0 0 620 347;" xml:space="preserve">
<style type="text/css">
	.st0{display:none;fill:#FFB3BA;}
	.st1{fill:#F7D0D0;}
	.st2{fill:none;stroke:#C9C9C9;stroke-width:2;stroke-miterlimit:10;}
	.st3{fill:#FAEDBC;}
	.st4{fill:#F9BCBB;}
	.st5{fill:#9AF8FF;}
</style>
<g id="Capa_2_1_">
	<rect x="-214.5" y="-2.2" class="st0" width="1069.9" height="349.2"/>
</g>
<g id="Capa_1_1_">
	<g>
		
			<rect x="339.3" y="91.8" transform="matrix(0.9602 -0.2793 0.2793 0.9602 -12.8624 100.564)" class="st1" width="14.3" height="7.1"/>
		<polygon class="st1" points="426.1,80.6 431.5,87.2 428.2,89.8 422.9,83.3 		"/>
		
			<rect x="433.3" y="209.1" transform="matrix(0.8512 -0.5249 0.5249 0.8512 -46.2167 263.4817)" class="st1" width="16.5" height="8.3"/>
		
			<rect x="202.1" y="176.8" transform="matrix(0.9924 -0.1231 0.1231 0.9924 -20.4823 26.8141)" class="st1" width="9.5" height="4.7"/>
		
			<rect x="123.5" y="291.5" transform="matrix(0.9924 -0.1231 0.1231 0.9924 -35.195 18.0123)" class="st1" width="9.5" height="4.7"/>
		
			<rect x="126.9" y="191.9" transform="matrix(0.9941 -0.1089 0.1089 0.9941 -20.9227 15.4029)" class="st1" width="7.4" height="14.8"/>
		
			<rect x="211.9" y="242.8" transform="matrix(0.9941 -0.1089 0.1089 0.9941 -25.9593 24.9609)" class="st1" width="7.4" height="14.8"/>
		
			<rect x="400.7" y="121.8" transform="matrix(0.2426 -0.9701 0.9701 0.2426 186.5472 487.111)" class="st1" width="9.1" height="4.5"/>
		
			<rect x="584.9" y="257.6" transform="matrix(0.8539 -0.5204 0.5204 0.8539 -52.3542 345.4285)" class="st1" width="8.4" height="16.8"/>
		
			<rect x="479.1" y="133.8" transform="matrix(0.8752 -0.4837 0.4837 0.8752 -6.6662 249.967)" class="st1" width="4.1" height="8.2"/>
		<polygon class="st1" points="436.4,119.7 438.3,130.2 433.1,131.1 431.1,120.7 		"/>
		
			<rect x="1" y="136.9" transform="matrix(0.9992 -3.943412e-02 3.943412e-02 0.9992 -5.5578 0.4876)" class="st1" width="17.1" height="8.5"/>
		<polygon class="st1" points="437.4,41.9 445.2,47.8 442.2,51.7 434.5,45.8 		"/>
		<polygon class="st1" points="4.3,278 7.9,292.1 0.9,293.9 -2.7,279.8 		"/>
		
			<rect x="138.1" y="147" transform="matrix(0.3284 -0.9445 0.9445 0.3284 -44.634 238.7177)" class="st1" width="14.8" height="7.4"/>
		<polygon class="st1" points="356.4,159.7 360.3,151.6 364.3,153.5 360.5,161.6 		"/>
		<polygon class="st1" points="356.4,264.8 360.3,256.7 364.3,258.6 360.5,266.7 		"/>
		<polygon class="st1" points="497.7,7.6 496.4,16.3 492,15.6 493.4,7 		"/>
		
			<rect x="439.5" y="6.8" transform="matrix(0.203 -0.9792 0.9792 0.203 345.1274 442.2237)" class="st1" width="9.3" height="4.7"/>
		
			<rect x="530.2" y="57.6" transform="matrix(0.6214 -0.7835 0.7835 0.6214 153.1171 440.4632)" class="st1" width="4.2" height="8.4"/>
		
			<rect x="231" y="132.6" transform="matrix(0.1459 -0.9893 0.9893 0.1459 69.0884 353.2293)" class="st1" width="16.2" height="8.1"/>
		<rect x="10.4" y="64" transform="matrix(0.9622 -0.2723 0.2723 0.9622 -18.3357 6.1246)" class="st1" width="5.1" height="10.2"/>
		
			<rect x="25.8" y="37.5" transform="matrix(0.6604 -0.7509 0.7509 0.6604 -19.6302 38.2917)" class="st1" width="13.4" height="6.7"/>
		
			<rect x="514.9" y="277" transform="matrix(0.361 -0.9326 0.9326 0.361 71.8546 665.1657)" class="st1" width="12.8" height="6.4"/>
		
			<rect x="51.9" y="123.1" transform="matrix(0.3736 -0.9276 0.9276 0.3736 -86.6316 133.9793)" class="st1" width="8" height="16.1"/>
		
			<rect x="398.6" y="0.2" transform="matrix(0.8291 -0.559 0.559 0.8291 65.0991 225.6372)" class="st1" width="6.1" height="12.1"/>
		
			<rect x="119.4" y="20.7" transform="matrix(0.9677 -0.2521 0.2521 0.9677 -1.8719 32.2596)" class="st1" width="11.1" height="5.5"/>
		<polygon class="st1" points="574.7,113.8 579.4,100.8 586,103.1 581.3,116.2 		"/>
		
			<rect x="610.8" y="-7.2" transform="matrix(0.8424 -0.5389 0.5389 0.8424 97.9798 330.0957)" class="st1" width="4.8" height="9.5"/>
		
			<rect x="269" y="191.9" transform="matrix(0.7552 -0.6555 0.6555 0.7552 -64.3796 228.0847)" class="st1" width="8.3" height="16.6"/>
		
			<rect x="307.7" y="277.6" transform="matrix(0.7552 -0.6555 0.6555 0.7552 -111.0783 274.4338)" class="st1" width="8.3" height="16.6"/>
		<polygon class="st1" points="277,102.8 276.5,111.2 272.3,111 272.8,102.6 		"/>
		
			<rect x="243.3" y="14.4" transform="matrix(0.3659 -0.9307 0.9307 0.3659 138.5524 239.6723)" class="st1" width="3.7" height="7.5"/>
		
			<rect x="200.9" y="36.3" transform="matrix(4.886881e-03 -1 1 4.886881e-03 160.5657 246.051)" class="st1" width="6.1" height="12.1"/>
		
			<rect x="387.6" y="47.5" transform="matrix(0.6165 -0.7874 0.7874 0.6165 106.8522 329.1522)" class="st1" width="7.4" height="14.8"/>
		
			<rect x="533.3" y="27.3" transform="matrix(0.9986 -5.355597e-02 5.355597e-02 0.9986 -0.8425 28.9095)" class="st1" width="11.4" height="5.7"/>
		
			<rect x="57.8" y="23.6" transform="matrix(0.2198 -0.9755 0.9755 0.2198 24.0341 83.8967)" class="st1" width="13.3" height="6.6"/>
		
			<rect x="285.9" y="23.7" transform="matrix(0.2803 -0.9599 0.9599 0.2803 184.6786 300.4529)" class="st1" width="13.6" height="6.8"/>
		<polygon class="st1" points="218.9,101.2 208.7,99.1 209.7,94 219.9,96.1 		"/>
	</g>
	<g>
		<path class="st2" d="M168.2,0.3C99.6,35.8,24.1,56.4-53.4,63.2c-2.4,0.5-4.8,0.5-7.2,1C-143.9,70.4-227.1,57-305,29"/>
		<path class="st3" d="M7.7,100.2l-18.7-11.9l-14.5,16.4c-2-14.9-4-29.8-6-44.7c5.1-0.6,10.2-1.2,15.5-2c6-0.8,11.9-1.8,17.7-2.8
			C3.7,70.2,5.7,85.2,7.7,100.2z"/>
		<path class="st4" d="M61,89.3L41.4,78.8L28.2,96.3c-3.1-14.8-6.3-29.6-9.4-44.4c5.5-1.2,11.1-2.4,16.8-3.8
			c5.4-1.3,10.7-2.6,15.8-3.9L61,89.3z"/>
		<path class="st5" d="M116.7,71.1L96,63L84.9,81.8c-4.9-14.3-9.8-28.7-14.7-43c4.9-1.5,9.9-3,15-4.7c5.8-1.9,11.4-3.8,16.9-5.8
			L116.7,71.1z"/>
		<path class="st3" d="M169.1,49l-21.4-6l-9.1,19.9l-19-41.3c5.1-2,10.3-4.2,15.5-6.5s10.4-4.6,15.4-6.9
			C156.8,21.8,163,35.4,169.1,49z"/>
	</g>
	<g>
		<path class="st2" d="M468.5,1c64.3,33.3,135.2,52.7,207.9,59c2.3,0.5,4.5,0.5,6.8,0.9c78.1,5.9,156.2-6.8,229.2-33"/>
		<path class="st3" d="M619,94.7l17.6-11.2l13.6,15.4c1.9-14,3.8-28,5.7-42c-4.7-0.5-9.6-1.2-14.5-1.8c-5.7-0.8-11.3-1.7-16.7-2.6
			C622.8,66.6,620.9,80.6,619,94.7z"/>
		<path class="st4" d="M569,84.5l18.4-9.8L599.8,91c3-13.9,5.9-27.7,8.8-41.6c-5.2-1.1-10.4-2.3-15.7-3.5c-5.1-1.2-10-2.4-14.9-3.7
			L569,84.5z"/>
		<path class="st5" d="M516.8,67.3l19.4-7.6l10.4,17.7c4.6-13.4,9.2-26.9,13.8-40.3c-4.6-1.4-9.3-2.9-14.1-4.4
			c-5.4-1.8-10.7-3.6-15.8-5.5C525.9,40.6,521.3,54,516.8,67.3z"/>
		<path class="st3" d="M467.5,46.6l20.1-5.6l8.5,18.7L513.9,21c-4.8-1.9-9.6-4-14.6-6.1s-9.8-4.3-14.4-6.6
			C479.1,21.1,473.4,33.9,467.5,46.6z"/>
	</g>
</g>
</svg>
