<svg id="Object" xmlns="http://www.w3.org/2000/svg" viewBox="0 0 600 600"><defs><style>.cls-1{fill:#ffd05d;}.cls-2{fill:#fdc453;}.cls-3{fill:#ffd77f;}.cls-4{fill:#5e4939;}.cls-5{fill:#2d292a;}.cls-6{fill:#414042;}</style></defs><title>emojis</title><circle class="cls-1" cx="300" cy="301" r="300" transform="translate(-124.97 300.29) rotate(-45)"/><path class="cls-2" d="M457,45a298.62,298.62,0,0,1,47.19,161.59c0,165.69-134.31,300-300,300A298.55,298.55,0,0,1,47.2,462.24C100.51,545.48,193.81,600.65,300,600.65c165.69,0,300-134.32,300-300C600,192.5,542.77,97.74,457,45Z"/><path class="cls-3" d="M40.77,332.65c0-153.83,124.71-278.53,278.54-278.53A278.08,278.08,0,0,1,540.1,162.86,278.43,278.43,0,0,0,298.57,23.15C144.74,23.15,20,147.85,20,301.68A277.27,277.27,0,0,0,77.78,471.47,277.26,277.26,0,0,1,40.77,332.65Z"/><path class="cls-4" d="M177,364c-7.72-7.51-20.11.79-16.1,10.79A150.38,150.38,0,0,0,439,377.54c4.17-9.83-8.31-18.35-16-10.91C379.13,409.2,285.93,469.77,177,364Z"/><path class="cls-5" d="M511.75,187.18l-121.83,10.1a41.61,41.61,0,0,0-4.31.22c-1.11.13-40.35,4.81-84.06,7.37a26.72,26.72,0,0,1-3.1,0c-43.73-2.56-83-7.24-84.11-7.38q-2.1-.21-4.26-.21L88.25,187.18c-24-.46-37.19,11.32-35.94,32.17,0,.8,8.61,48.22,8.61,48.22,2.79,16.28,5.83,29.65,15.79,44.37,5.19,7.66,12.89,13.42,21.13,17.64a58.8,58.8,0,0,0,13.21,4.9c3.84.92,8.09.87,12.2,1.1,3.63.2,9.56.48,13.19.48h39.38a84.79,84.79,0,0,0,37.5-8.78c18.1-9,28.58-23.95,36.09-42.11,7.1-17.15,21.29-30.13,36.41-40a25.81,25.81,0,0,1,28.36,0A115.28,115.28,0,0,1,336.47,264c4.83,5.31,8.73,12,12.66,18.14,4.45,6.93,7.3,15.17,11.91,22.22a61.2,61.2,0,0,0,17,17.83c12,8.21,26.45,12.7,40.88,13.68,1.76.12,3.52.18,5.29.18h39.37c3.64,0,9.57-.28,13.2-.48,4.11-.23,8.36-.18,12.2-1.1a58.8,58.8,0,0,0,13.21-4.9c8.24-4.22,15.94-10,21.13-17.64,10-14.72,13-28.09,15.79-44.37,0,0,8.56-47.42,8.61-48.22C548.94,198.5,535.71,186.72,511.75,187.18Z"/><path class="cls-6" d="M424.18,336.06h39.37c3.64,0,9.57-.28,13.2-.48,4.11-.23,8.36-.18,12.2-1.1a58.8,58.8,0,0,0,13.21-4.9c8.24-4.22,15.94-10,21.13-17.64,10-14.72,13-28.09,15.79-44.37,0,0,8.56-47.42,8.61-48.22a39.55,39.55,0,0,0-.34-8.17c-56.11,86.88-124.17,107.88-167.88,112a83.11,83.11,0,0,0,39.42,12.75C420.65,336,422.41,336.06,424.18,336.06Z"/><path class="cls-6" d="M97.84,329.58a58.8,58.8,0,0,0,13.21,4.9c3.84.92,8.09.87,12.2,1.1,3.63.2,9.56.48,13.2.48h39.37a84.79,84.79,0,0,0,37.5-8.78c18.1-9,28.58-23.95,36.09-42.11a75.19,75.19,0,0,1,16.43-23.94C184.7,315,117.18,323.46,89.22,324.38A68.73,68.73,0,0,0,97.84,329.58Z"/></svg>