<svg id="Object" xmlns="http://www.w3.org/2000/svg" viewBox="0 0 600 600"><defs><style>.cls-1{fill:#ffd05d;}.cls-2{fill:#fdc453;}.cls-3{fill:#ffd77f;}.cls-4{fill:#5e4939;}.cls-5{fill:#303030;}.cls-6{fill:#7cc4e8;}.cls-7{fill:#6ebcdb;}</style></defs><title>emojis</title><circle class="cls-1" cx="299.37" cy="329.77" r="271.7" transform="translate(-145.49 308.27) rotate(-45)"/><path class="cls-2" d="M441.52,97.87a270.39,270.39,0,0,1,42.75,146.35c0,150-121.64,271.7-271.7,271.7A270.47,270.47,0,0,1,70.42,475.8a271.5,271.5,0,0,0,229,125.35c150.06,0,271.7-121.65,271.7-271.71A271.51,271.51,0,0,0,441.52,97.87Z"/><path class="cls-3" d="M64.6,358.43c0-139.32,112.94-252.26,252.26-252.26a251.82,251.82,0,0,1,200,98.49A252.16,252.16,0,0,0,298.08,78.13c-139.32,0-252.26,112.94-252.26,252.25a251.12,251.12,0,0,0,52.3,153.78A251.14,251.14,0,0,1,64.6,358.43Z"/><path class="cls-4" d="M188,370.87c-7-6.8-18.22.72-14.59,9.78a136.19,136.19,0,0,0,251.86,2.5c3.77-8.91-7.53-16.62-14.48-9.89C371,411.82,286.63,466.67,188,370.87Z"/><path class="cls-5" d="M229.23,290.83a50.34,50.34,0,0,0-93.09-.93,8.09,8.09,0,0,0,13.08,9c15.08-14.62,38.91-26.35,66.85.8a8.09,8.09,0,0,0,13.16-8.82Z"/><path class="cls-5" d="M462.66,290.83a50.34,50.34,0,0,0-93.09-.93,8.09,8.09,0,0,0,13.09,9c15.07-14.62,38.9-26.35,66.84.8a8.09,8.09,0,0,0,13.16-8.82Z"/><path class="cls-6" d="M472.74,47c-4.32-7.16-10.59-13.33-19.21-18.88C441.28,20.33,427.3,14.65,408.1,9.66,378.61,2.54,347-.29,314,1.26a5.61,5.61,0,0,0-.46,11.17c35.79,4.63,63.15,10.7,86.13,19.11C414.8,37,426,42.76,434.06,49.16a48.23,48.23,0,0,1,5.53,5.2,24,24,0,0,1,3.28,4.78,8.61,8.61,0,0,1,.16,7.52c-2.34,5.46-10.94,11.92-23,17.26A200.33,200.33,0,0,1,381.6,95.83a351.4,351.4,0,0,1-42.32,6.33c-13.63,1.34-27.84,2-43.44,2a431.12,431.12,0,0,1-43.49-2,359.32,359.32,0,0,1-42.23-6.36c-14.82-3.22-27.74-7.25-38.4-12C159.71,78.43,151.21,72,149,66.45a8.58,8.58,0,0,1,.29-7.34c1.47-3.08,4.6-6.61,9-10.17,8.12-6.37,19.41-12.12,34.53-17.56C215.88,23,243.25,17,279,12.41a5.61,5.61,0,0,0-.45-11.17c-32.91-1.56-64.56,1.25-94.15,8.33-18.71,4.81-33.12,10.61-45.41,18.3-8.66,5.57-15,11.67-19.31,18.72a37.35,37.35,0,0,0-5,13.75,32.84,32.84,0,0,0,1.25,15.11c2.46,8,7.69,15.41,16.08,22.81a108,108,0,0,0,21.51,14c12.83,6.53,27.54,11.77,46.35,16.52,29.33,7.15,60.74,10.7,96.06,10.85,35.26-.1,66.67-3.61,96.08-10.73,18.83-4.73,33.56-9.95,46.35-16.4a112,112,0,0,0,21.62-13.94,62.16,62.16,0,0,0,9.33-9.77,41.63,41.63,0,0,0,6.83-12.6C479.4,67,478.16,56.08,472.74,47Z"/><path class="cls-7" d="M459.89,98.55a62.16,62.16,0,0,0,9.33-9.77,41.63,41.63,0,0,0,6.83-12.6,33.53,33.53,0,0,0,.05-21.79C459.42,122.32,317.24,136.3,273.3,139c7.35.35,14.84.58,22.54.61,35.26-.1,66.67-3.61,96.08-10.73,18.83-4.73,33.56-9.95,46.35-16.4A112,112,0,0,0,459.89,98.55Z"/></svg>