<svg id="Object" xmlns="http://www.w3.org/2000/svg" viewBox="0 0 600 600"><defs><style>.cls-1{fill:#ffd05d;}.cls-2{fill:#fff;}.cls-3{fill:#fdc453;}.cls-4{fill:#ffd77f;}.cls-5{fill:#5e4939;}.cls-6{fill:#303030;}.cls-7{fill:#7cc4e8;}.cls-8{fill:#6ebcdb;}</style></defs><title>emojis</title><path class="cls-1" d="M301.37,588.82A261.21,261.21,0,0,1,116.67,142.9,261.22,261.22,0,0,1,486.08,512.32,259.53,259.53,0,0,1,301.37,588.82Z"/><path class="cls-2" d="M301.37,76.39c138.75,0,251.22,112.47,251.22,251.22S440.12,578.82,301.37,578.82,50.16,466.35,50.16,327.61,162.63,76.39,301.37,76.39m0-20A271.28,271.28,0,0,0,195.8,577.5,271.28,271.28,0,0,0,407,77.71,269.5,269.5,0,0,0,301.37,56.39Z"/><path class="cls-3" d="M432.81,113.19a250.13,250.13,0,0,1,39.52,135.32c0,138.74-112.47,251.22-251.22,251.22a250.05,250.05,0,0,1-131.43-37.1,251,251,0,0,0,211.69,115.9c138.75,0,251.22-112.48,251.22-251.22A251.06,251.06,0,0,0,432.81,113.19Z"/><path class="cls-4" d="M84.3,354.11c0-128.81,104.43-233.24,233.24-233.24a232.86,232.86,0,0,1,184.89,91.06,233.16,233.16,0,0,0-202.25-117c-128.82,0-233.24,104.43-233.24,233.24a232.22,232.22,0,0,0,48.35,142.18A232.19,232.19,0,0,1,84.3,354.11Z"/><path class="cls-5" d="M198.4,365.61c-6.47-6.28-16.84.67-13.48,9.05A125.92,125.92,0,0,0,417.79,377c3.49-8.24-7-15.37-13.39-9.14C367.64,403.47,289.59,454.19,198.4,365.61Z"/><path class="cls-6" d="M236.52,291.6a46.55,46.55,0,0,0-86.08-.85,7.49,7.49,0,0,0,12.1,8.28c13.94-13.52,36-24.37,61.81.73a7.49,7.49,0,0,0,12.17-8.16Z"/><path class="cls-6" d="M452.35,291.6a46.54,46.54,0,0,0-86.07-.85,7.48,7.48,0,0,0,12.1,8.28c13.93-13.52,36-24.37,61.8.73a7.49,7.49,0,0,0,12.17-8.16Z"/><path class="cls-7" d="M298.06,161.8c-33.43-.14-63.24-3.52-91.14-10.32-18.2-4.59-32.48-9.69-45-16.07a109.68,109.68,0,0,1-21.85-14.25l-.13-.1c-9.15-8.08-15-16.47-17.8-25.65A40.2,40.2,0,0,1,120.64,77a44.36,44.36,0,0,1,6-16.3l.07-.11c4.81-7.81,11.66-14.5,21-20.48l.1-.06C160,32.34,174.2,26.58,192.54,21.87l.15,0a314.88,314.88,0,0,1,73.18-8.37c5.5,0,11.11.14,16.68.4a15.19,15.19,0,0,1,1.21,30.24c-32.26,4.12-56.89,9.52-77.52,17-12.94,4.66-22.46,9.45-29.12,14.67A26.2,26.2,0,0,0,172,81c1.34,1.74,5.72,5.71,15.46,10.06A175.51,175.51,0,0,0,221,101.49a319.15,319.15,0,0,0,37.81,5.69c12.52,1.22,25.14,1.83,37.61,1.83h1.67c14.15,0,27-.58,39.23-1.79h.11a313.81,313.81,0,0,0,37.92-5.67,176.56,176.56,0,0,0,33.62-10.38C418.22,87,423.11,82.93,424.61,81c-.25-.37-.61-.85-1.08-1.42a34.64,34.64,0,0,0-3.84-3.6c-6.57-5.24-16-10-28.95-14.72-20.58-7.53-45.2-13-77.52-17.15a15.19,15.19,0,0,1,1.24-30.24c5.52-.26,11.09-.39,16.54-.39a312.83,312.83,0,0,1,73.25,8.42l.17,0c18.77,4.88,32.6,10.52,44.84,18.28,9.33,6,16.16,12.78,21,20.73,6.53,11,8,24.16,4,35.42a48,48,0,0,1-7.81,14.46,67.79,67.79,0,0,1-10,10.52l-.13.11a113.31,113.31,0,0,1-21.91,14.16C421.8,142,407.53,147,389.38,151.57c-28,6.79-57.86,10.13-91.24,10.23h-.08Z"/><path class="cls-2" d="M265.86,23.46q8,0,16.22.39a5.19,5.19,0,0,1,.41,10.33c-33,4.21-58.32,9.79-79.67,17.54-14,5-24.41,10.34-31.92,16.24-4.09,3.29-7,6.55-8.34,9.4a7.9,7.9,0,0,0-.27,6.78c2.09,5.11,10,11.08,21.06,16a185.33,185.33,0,0,0,35.5,11.07,330.08,330.08,0,0,0,39,5.88c12.35,1.2,25.25,1.87,38.48,1.87h1.72c14.43,0,27.57-.6,40.17-1.84a325,325,0,0,0,39.13-5.85,186,186,0,0,0,35.56-11c11.13-4.94,19.07-10.91,21.24-16a8,8,0,0,0-.15-7A21.35,21.35,0,0,0,431,73a44.49,44.49,0,0,0-5.11-4.81c-7.42-5.92-17.81-11.25-31.77-16.3-21.25-7.77-46.55-13.39-79.64-17.66a5.19,5.19,0,0,1,.43-10.33q8.1-.39,16.08-.38a302.44,302.44,0,0,1,70.9,8.14c17.75,4.62,30.67,9.87,42,17.05,8,5.13,13.76,10.84,17.76,17.45,5,8.42,6.15,18.51,3.06,27a38.26,38.26,0,0,1-6.32,11.65,57.38,57.38,0,0,1-8.62,9,103.23,103.23,0,0,1-20,12.89c-11.83,6-25.44,10.79-42.86,15.16-27.19,6.59-56.23,9.83-88.83,9.93-32.66-.14-61.7-3.42-88.82-10-17.39-4.39-31-9.24-42.85-15.27a100,100,0,0,1-19.9-12.93c-7.75-6.85-12.59-13.73-14.86-21.1a30.33,30.33,0,0,1-1.16-14,34.45,34.45,0,0,1,4.66-12.7c4-6.53,9.85-12.17,17.85-17.32C164.4,41.36,177.72,36,195,31.56a304.1,304.1,0,0,1,70.84-8.1m0-20h0a324.26,324.26,0,0,0-75.49,8.65l-.16,0-.16,0c-19.36,5-34.49,11.11-47.63,19.33l-.1.06-.1.07c-10.58,6.8-18.45,14.53-24.07,23.64l-.06.11-.07.12a54.37,54.37,0,0,0-7.26,19.88,50.13,50.13,0,0,0,1.81,23c3.38,11,10.17,20.86,20.73,30.19l.13.11.12.11a119.44,119.44,0,0,0,23.78,15.53c13.26,6.74,28.21,12.09,47.07,16.86h.08l.07,0c28.67,7,59.25,10.46,93.47,10.61h.15c34.17-.1,64.75-3.53,93.48-10.49l.08,0,.09,0c18.88-4.74,33.81-10.05,47-16.71a122.53,122.53,0,0,0,23.85-15.44l.14-.11.13-.12a76.58,76.58,0,0,0,11.41-12,57.91,57.91,0,0,0,9.31-17.28c5-14,3.18-30.31-4.8-43.72l0,0,0-.05c-5.61-9.28-13.48-17.11-24.05-23.92l-.06,0-.06,0c-13.16-8.34-27.86-14.36-47.68-19.51l-.17,0-.17,0A323.13,323.13,0,0,0,331,3.49c-5.62,0-11.34.13-17,.4a25.18,25.18,0,0,0-15.51,6.23A25.15,25.15,0,0,0,283,3.87c-5.71-.27-11.49-.41-17.15-.41ZM188.14,80.32a120.19,120.19,0,0,1,21.45-9.78h.06C229.57,63.28,253.52,58,285,54a25.18,25.18,0,0,0,13.47-6,25.17,25.17,0,0,0,13.45,6c31.57,4.08,55.5,9.36,75.32,16.61l0,0h0a117.67,117.67,0,0,1,21.09,9.65c-1.07.54-2.25,1.11-3.55,1.69a166,166,0,0,1-31.66,9.75,306.47,306.47,0,0,1-36.69,5.48h-.21C324.37,98.43,311.88,99,298.1,99h-1.72c-12.15,0-24.44-.6-36.55-1.78h-.16a308.91,308.91,0,0,1-36.62-5.52,164.75,164.75,0,0,1-31.56-9.78c-1.22-.54-2.33-1.08-3.35-1.6Z"/><path class="cls-8" d="M449.79,113.82a57.38,57.38,0,0,0,8.62-9,38.26,38.26,0,0,0,6.32-11.65,31,31,0,0,0,0-20.15c-15.43,62.81-146.88,75.73-187.51,78.24,6.79.33,13.71.54,20.84.57,32.6-.1,61.64-3.34,88.83-9.93,17.42-4.37,31-9.19,42.86-15.16A103.23,103.23,0,0,0,449.79,113.82Z"/></svg>