<svg id="Object" xmlns="http://www.w3.org/2000/svg" viewBox="0 0 600 600"><defs><style>.cls-1{fill:#ffd05d;}.cls-2{fill:#fff;}.cls-3{fill:#fdc453;}.cls-4{fill:#ffd77f;}.cls-5{fill:#303030;}.cls-6{fill:#695342;}.cls-7{fill:#f06669;}.cls-8{fill:#c64f58;}.cls-9{fill:#e05f65;}</style></defs><title>emojis</title><path class="cls-1" d="M303.08,588.35A287.61,287.61,0,0,1,99.7,97.37,287.61,287.61,0,1,1,506.45,504.11,285.7,285.7,0,0,1,303.08,588.35Z"/><path class="cls-2" d="M303.08,23.13c153.32,0,277.61,124.29,277.61,277.61S456.4,578.35,303.08,578.35,25.46,454.06,25.46,300.74,149.75,23.13,303.08,23.13m0-20A297.69,297.69,0,0,0,187.23,575,297.69,297.69,0,0,0,418.93,26.52,295.89,295.89,0,0,0,303.08,3.13Z"/><path class="cls-3" d="M448.32,63.8A276.26,276.26,0,0,1,492,213.33c0,153.32-124.3,277.61-277.62,277.61A276.29,276.29,0,0,1,69.14,450,277.41,277.41,0,0,0,303.08,578c153.32,0,277.61-124.3,277.61-277.62C580.69,200.34,527.73,112.65,448.32,63.8Z"/><path class="cls-4" d="M63.19,330c0-142.35,115.4-257.75,257.75-257.75A257.28,257.28,0,0,1,525.25,172.91,257.61,257.61,0,0,0,301.76,43.63C159.41,43.63,44,159,44,301.37A256.57,256.57,0,0,0,97.44,458.49,256.59,256.59,0,0,1,63.19,330Z"/><path class="cls-5" d="M153.33,305.22a11.77,11.77,0,0,1-7.24-21.05l40-31.19-41.39-24.34a11.77,11.77,0,0,1,11.93-20.29L213,241.47a11.77,11.77,0,0,1,1.27,19.43l-53.7,41.84A11.75,11.75,0,0,1,153.33,305.22Z"/><path class="cls-5" d="M452.82,305.22a11.75,11.75,0,0,1-7.23-2.48L391.9,260.9a11.78,11.78,0,0,1,1.26-19.43l56.32-33.12a11.77,11.77,0,1,1,11.93,20.29L420,253l40,31.19a11.77,11.77,0,0,1-7.24,21.05Z"/><path class="cls-6" d="M164.35,343.33c7.87,53.75,67,95.53,138.73,95.53s130.85-41.78,138.72-95.53Z"/><path class="cls-7" d="M220.28,343.33V451.6a82.8,82.8,0,0,0,165.59,0V343.33Z"/><path class="cls-8" d="M303.08,466.7h0a7.4,7.4,0,0,1-7.4-7.4v-116h14.79v116A7.4,7.4,0,0,1,303.08,466.7Z"/><path class="cls-9" d="M303.08,534.39c45,0,81.84-36.35,82.75-81.11-52.83,51.4-109,58-141.73,56.27A82.55,82.55,0,0,0,303.08,534.39Z"/></svg>