<svg id="Object" xmlns="http://www.w3.org/2000/svg" viewBox="0 0 600 600"><defs><style>.cls-1{fill:#ffd05d;}.cls-2{fill:#fff;}.cls-3{fill:#fdc453;}.cls-4{fill:#ffd77f;}.cls-5{fill:#5e4939;}.cls-6{fill:#303030;}.cls-7{fill:#f5a6ac;}</style></defs><title>emojis</title><path class="cls-1" d="M303.33,586.29A285.11,285.11,0,0,1,101.72,99.57,285.12,285.12,0,0,1,504.94,502.78,283.25,283.25,0,0,1,303.33,586.29Z"/><path class="cls-2" d="M303.33,26.06c151.94,0,275.11,123.17,275.11,275.12S455.27,576.29,303.33,576.29,28.21,453.12,28.21,301.18,151.38,26.06,303.33,26.06m0-20a295.18,295.18,0,0,0-114.88,567A295.19,295.19,0,0,0,418.21,29.26,293.39,293.39,0,0,0,303.33,6.06Z"/><path class="cls-3" d="M447.27,66.36a273.92,273.92,0,0,1,43.28,148.19c0,152-123.18,275.12-275.12,275.12A273.83,273.83,0,0,1,71.49,449,274.91,274.91,0,0,0,303.33,576c151.94,0,275.11-123.18,275.11-275.12A275,275,0,0,0,447.27,66.36Z"/><path class="cls-4" d="M65.6,330.2C65.6,189.13,180,74.77,321,74.77a255,255,0,0,1,202.48,99.72A255.34,255.34,0,0,0,302,46.37C161,46.37,46.59,160.73,46.59,301.8a254.32,254.32,0,0,0,53,155.71A254.24,254.24,0,0,1,65.6,330.2Z"/><path class="cls-5" d="M190.56,329.53c-7.09-6.88-18.44.73-14.77,9.9a137.9,137.9,0,0,0,255,2.54c3.82-9-7.63-16.83-14.66-10C375.9,371,290.42,426.54,190.56,329.53Z"/><path class="cls-6" d="M374.35,241a51,51,0,0,0,94.27.93,8.2,8.2,0,0,0-13.25-9.06c-15.27,14.8-39.4,26.68-67.69-.8a8.21,8.21,0,0,0-5.72-2.35A8.23,8.23,0,0,0,374.35,241Z"/><path class="cls-6" d="M138,241a51,51,0,0,0,94.26.94A8.19,8.19,0,0,0,219,232.86c-15.26,14.8-39.39,26.68-67.69-.8A8.2,8.2,0,0,0,138,241Z"/><circle class="cls-7" cx="101.06" cy="339.47" r="48.03"/><circle class="cls-7" cx="505.6" cy="339.47" r="48.03"/></svg>