<svg id="Object" xmlns="http://www.w3.org/2000/svg" viewBox="0 0 600 600"><defs><style>.cls-1{fill:#ffd05d;}.cls-2{fill:#fdc453;}.cls-3{fill:#ffd77f;}.cls-4{fill:#5e4939;}.cls-5{fill:#303030;}.cls-6{fill:#fff;}.cls-7{fill:#f1f2f2;}</style></defs><title>emojis</title><circle class="cls-1" cx="279.5" cy="298.25" r="273.9" transform="translate(-129.03 284.99) rotate(-45)"/><path class="cls-2" d="M422.8,64.47A272.57,272.57,0,0,1,465.89,212c0,151.27-122.63,273.9-273.9,273.9A272.59,272.59,0,0,1,48.68,445.46,273.7,273.7,0,0,0,279.5,571.83c151.27,0,273.9-122.63,273.9-273.91A273.73,273.73,0,0,0,422.8,64.47Z"/><path class="cls-3" d="M42.82,327.14c0-140.44,113.85-254.3,254.3-254.3a253.88,253.88,0,0,1,201.59,99.28A254.22,254.22,0,0,0,278.19,44.57c-140.44,0-254.3,113.85-254.3,254.3a253.16,253.16,0,0,0,52.72,155A253.15,253.15,0,0,1,42.82,327.14Z"/><path class="cls-4" d="M383.07,333.1c2.86-.33,4.5,3.21,4.47,5.86-.13,12.18-3.38,24.61-9.65,37a103.21,103.21,0,0,1-24.65,30.51,117.33,117.33,0,0,1-73.73,26.74c-27.11.51-54.22-9.26-74.22-26.58-20.79-17.79-33.45-43-33.84-67.54,0-2.8,1.84-6.41,5-5.85,2.58.46,4.68,3.95,6.57,5.53,2.92,2.43,6,4.73,9.05,6.92a183.88,183.88,0,0,0,19.4,11.86c24.67,13.16,52.65,20.27,80.67,17.83a139.2,139.2,0,0,0,51.08-15.06A179,179,0,0,0,370.29,343c3.23-2.47,8.54-9.1,12.52-9.86Z"/><path class="cls-5" d="M195.55,249.23c0,18.79-9,34-20.18,34s-20.18-15.23-20.18-34,9-34,20.18-34S195.55,230.44,195.55,249.23Z"/><path class="cls-5" d="M420.5,260.52a50.74,50.74,0,0,0-93.84-.93,8.15,8.15,0,0,0,13.18,9c15.2-14.73,39.22-26.56,67.39.8a8.16,8.16,0,0,0,13.27-8.89Z"/><path class="cls-6" d="M498.71,46.71c-20.14,97.81-96.79,120.82-96.79,120.82s76.65,23,96.79,120.83c20.13-97.81,96.78-120.83,96.78-120.83S518.84,144.52,498.71,46.71Z"/><path class="cls-7" d="M498.71,46.71c-20.14,97.81-96.79,120.82-96.79,120.82S504.8,182.6,498.71,46.71Z"/></svg>