<svg id="Object" xmlns="http://www.w3.org/2000/svg" viewBox="0 0 600 600"><defs><style>.cls-1{fill:#ffd05d;}.cls-2{fill:#fdc453;}.cls-3{fill:#ffd77f;}.cls-4{fill:#5e4939;}.cls-5{fill:#303030;}.cls-6{fill:#f5a6ac;}</style></defs><title>emojis</title><circle class="cls-1" cx="301.26" cy="300.15" r="296.85" transform="translate(-124 300.94) rotate(-45)"/><path class="cls-2" d="M456.57,46.8a295.46,295.46,0,0,1,46.7,159.89c0,163.94-132.9,296.85-296.84,296.85A295.48,295.48,0,0,1,51.12,459.7c52.76,82.36,145.07,137,250.14,137,164,0,296.85-132.9,296.85-296.85C598.11,192.8,541.48,99,456.57,46.8Z"/><path class="cls-3" d="M44.76,331.47c0-152.21,123.39-275.6,275.61-275.6a275.11,275.11,0,0,1,218.46,107.6,275.49,275.49,0,0,0-239-138.24c-152.21,0-275.6,123.39-275.6,275.6a274.4,274.4,0,0,0,57.13,168A274.33,274.33,0,0,1,44.76,331.47Z"/><path class="cls-4" d="M179.59,345.06c-7.65-7.42-19.9.79-15.94,10.69a148.79,148.79,0,0,0,275.17,2.73c4.12-9.73-8.23-18.16-15.81-10.8C379.56,389.8,287.34,449.73,179.59,345.06Z"/><path class="cls-5" d="M224.63,257.61a55,55,0,0,0-101.71-1,8.84,8.84,0,0,0,14.3,9.78c16.46-16,42.5-28.79,73,.87a8.87,8.87,0,0,0,6.17,2.53,8.88,8.88,0,0,0,8.21-12.17Z"/><path class="cls-5" d="M479.67,257.61a55,55,0,0,0-101.71-1,8.84,8.84,0,0,0,14.29,9.78c16.47-16,42.51-28.79,73,.87a8.85,8.85,0,0,0,14.38-9.64Z"/><circle class="cls-6" cx="83.02" cy="343.76" r="51.83"/><circle class="cls-6" cx="519.51" cy="343.76" r="51.83"/></svg>