<svg id="Object" xmlns="http://www.w3.org/2000/svg" viewBox="0 0 600 600"><defs><style>.cls-1{fill:#ffd05d;}.cls-2{fill:#fff;}.cls-3{fill:#fdc453;}.cls-4{fill:#ffd77f;}.cls-5{fill:#5e4939;}.cls-6{fill:#2d292a;}.cls-7{fill:#414042;}</style></defs><title>emojis</title><path class="cls-1" d="M300,581.29A280.3,280.3,0,0,1,101.8,102.8,280.3,280.3,0,0,1,498.2,499.2,278.46,278.46,0,0,1,300,581.29Z"/><path class="cls-2" d="M300,30.71c149.28,0,270.29,121,270.29,270.29S449.28,571.29,300,571.29,29.71,450.28,29.71,301,150.72,30.71,300,30.71m0-20A290.36,290.36,0,0,0,187,568.47,290.36,290.36,0,0,0,413,33.53,288.35,288.35,0,0,0,300,10.71Z"/><path class="cls-3" d="M441.41,70.3a269,269,0,0,1,42.53,145.6c0,149.28-121,270.29-270.3,270.29A269,269,0,0,1,72.23,446.27,270.09,270.09,0,0,0,300,571c149.28,0,270.29-121,270.29-270.3A270.12,270.12,0,0,0,441.41,70.3Z"/><path class="cls-4" d="M66.44,329.52c0-138.6,112.36-251,251-251a250.5,250.5,0,0,1,198.93,98A250.85,250.85,0,0,0,298.71,50.66c-138.59,0-250.95,112.36-250.95,251a249.81,249.81,0,0,0,52,153A249.79,249.79,0,0,1,66.44,329.52Z"/><path class="cls-5" d="M189.21,357.75c-7-6.76-18.12.72-14.51,9.73A135.48,135.48,0,0,0,425.25,370c3.76-8.86-7.49-16.53-14.4-9.83C371.3,398.48,287.32,453.06,189.21,357.75Z"/><path class="cls-6" d="M490.78,198.45,381,207.55a36.33,36.33,0,0,0-3.89.2c-1,.12-36.35,4.33-75.73,6.64a21.8,21.8,0,0,1-2.8,0c-39.39-2.31-74.76-6.53-75.78-6.65a37.4,37.4,0,0,0-3.84-.19l-109.76-9.1c-21.59-.42-33.51,10.2-32.38,29,0,.72,7.76,43.44,7.76,43.44,2.5,14.67,5.24,26.72,14.22,40,4.67,6.9,11.61,12.09,19,15.89a52.55,52.55,0,0,0,11.9,4.41c3.46.83,7.29.79,11,1,3.27.18,8.62.43,11.89.43h35.48a76.39,76.39,0,0,0,33.78-7.91c16.31-8.13,25.75-21.58,32.52-37.94,6.4-15.46,19.18-27.15,32.8-36.07a23.26,23.26,0,0,1,25.56,0,104,104,0,0,1,20.08,17c4.35,4.79,7.86,10.82,11.41,16.35,4,6.24,6.57,13.66,10.73,20a55,55,0,0,0,15.28,16.06,74.45,74.45,0,0,0,36.84,12.32c1.58.11,3.17.17,4.76.17h35.48c3.27,0,8.62-.25,11.89-.43,3.7-.21,7.53-.17,11-1a52.55,52.55,0,0,0,11.9-4.41c7.43-3.8,14.37-9,19-15.89,9-13.26,11.72-25.31,14.22-40,0,0,7.72-42.72,7.76-43.44C524.29,208.65,512.37,198,490.78,198.45Z"/><path class="cls-7" d="M411.88,332.59h35.48c3.27,0,8.62-.25,11.89-.43,3.7-.21,7.53-.17,11-1a52.55,52.55,0,0,0,11.9-4.41c7.43-3.8,14.37-9,19-15.89,9-13.26,11.72-25.31,14.22-40,0,0,7.72-42.72,7.76-43.44a34.62,34.62,0,0,0-.31-7.36C472.31,298.35,411,317.27,371.6,320.93a74.67,74.67,0,0,0,35.52,11.49C408.7,332.53,410.29,332.59,411.88,332.59Z"/><path class="cls-7" d="M117.86,326.75a52.55,52.55,0,0,0,11.9,4.41c3.46.83,7.29.79,11,1,3.27.18,8.62.43,11.89.43h35.48a76.39,76.39,0,0,0,33.78-7.91c16.31-8.13,25.75-21.58,32.52-37.94a67.75,67.75,0,0,1,14.8-21.57c-73.11,48.44-133.94,56.06-159.13,56.9A63.29,63.29,0,0,0,117.86,326.75Z"/></svg>