<svg id="Object" xmlns="http://www.w3.org/2000/svg" viewBox="0 0 600 600"><defs><style>.cls-1{fill:#ffd05d;}.cls-2{fill:#fdc453;}.cls-3{fill:#ffd77f;}.cls-4{fill:#303030;}.cls-5{fill:#695342;}.cls-6{fill:#f06669;}.cls-7{fill:#c64f58;}.cls-8{fill:#e05f65;}</style></defs><title>emojis</title><circle class="cls-1" cx="296.08" cy="297.74" r="296.08" transform="translate(-123.82 296.56) rotate(-45)"/><path class="cls-2" d="M451,45a294.73,294.73,0,0,1,46.58,159.48C497.56,368,365,500.59,201.48,500.59a294.69,294.69,0,0,1-154.9-43.72c52.62,82.15,144.7,136.6,249.5,136.6,163.51,0,296.07-132.56,296.07-296.08C592.15,190.66,535.67,97.14,451,45Z"/><path class="cls-3" d="M40.24,329c0-151.82,123.07-274.89,274.89-274.89A274.41,274.41,0,0,1,533,161.41,274.76,274.76,0,0,0,294.67,23.53C142.85,23.53,19.78,146.6,19.78,298.41A273.63,273.63,0,0,0,76.77,466,273.52,273.52,0,0,1,40.24,329Z"/><path class="cls-4" d="M136.37,302.52a12.55,12.55,0,0,1-7.72-22.45l42.7-33.27-44.14-26a12.55,12.55,0,0,1,12.73-21.64L200,234.53a12.55,12.55,0,0,1,1.35,20.72l-57.27,44.62A12.47,12.47,0,0,1,136.37,302.52Z"/><path class="cls-4" d="M455.78,302.52a12.47,12.47,0,0,1-7.71-2.65L390.8,255.25a12.55,12.55,0,0,1,1.35-20.72l60.06-35.33a12.55,12.55,0,0,1,12.73,21.64l-44.14,26,42.7,33.27a12.55,12.55,0,0,1-7.72,22.45Z"/><path class="cls-5" d="M148.13,343.16c8.38,57.33,71.41,101.89,148,101.89S435.64,400.49,444,343.16Z"/><path class="cls-6" d="M207.78,343.16V458.63a88.3,88.3,0,0,0,176.6,0V343.16Z"/><path class="cls-7" d="M296.08,474.73h0a7.9,7.9,0,0,1-7.9-7.89V343.16H304V466.84A7.89,7.89,0,0,1,296.08,474.73Z"/><path class="cls-8" d="M296.08,546.93c48,0,87.29-38.76,88.25-86.51-56.34,54.82-116.25,61.81-151.15,60A88,88,0,0,0,296.08,546.93Z"/></svg>