<svg id="Object" xmlns="http://www.w3.org/2000/svg" viewBox="0 0 600 600"><defs><style>.cls-1{fill:#ffd05d;}.cls-2{fill:#fff;}.cls-3{fill:#fdc453;}.cls-4{fill:#ffd77f;}.cls-5{fill:#5e4939;}.cls-6{fill:#303030;}.cls-7{fill:#f1f2f2;}</style></defs><title>emojis</title><path class="cls-1" d="M301.16,588.62A289.18,289.18,0,0,1,96.68,95a289.18,289.18,0,1,1,409,409A287.32,287.32,0,0,1,301.16,588.62Z"/><path class="cls-2" d="M301.16,20.27c154.19,0,279.18,125,279.18,279.18s-125,279.17-279.18,279.17S22,453.63,22,299.45,147,20.27,301.16,20.27m0-20A299.25,299.25,0,0,0,184.7,575.1,299.25,299.25,0,0,0,417.62,23.79,297.23,297.23,0,0,0,301.16.27Z"/><path class="cls-3" d="M447.22,61.17a277.8,277.8,0,0,1,43.93,150.38c0,154.18-125,279.17-279.18,279.17A277.83,277.83,0,0,1,65.91,449.49a279,279,0,0,0,235.25,128.8c154.19,0,279.18-125,279.18-279.17A279,279,0,0,0,447.22,61.17Z"/><path class="cls-4" d="M59.93,328.9c0-143.15,116-259.2,259.2-259.2A258.74,258.74,0,0,1,524.59,170.9a259.06,259.06,0,0,0-224.75-130c-143.16,0-259.2,116.05-259.2,259.2a258,258,0,0,0,53.73,158A258,258,0,0,1,59.93,328.9Z"/><path class="cls-5" d="M406.73,335c2.92-.33,4.59,3.27,4.56,6-.14,12.4-3.45,25.07-9.83,37.66a105.28,105.28,0,0,1-25.14,31.09A119.51,119.51,0,0,1,301.18,437c-27.64.53-55.26-9.43-75.65-27.09C204.34,391.74,191.44,366,191,341c0-2.86,1.88-6.54,5.06-6,2.62.47,4.76,4,6.69,5.63q4.47,3.72,9.23,7.06a185.56,185.56,0,0,0,19.77,12.09C256.93,373.25,285.45,380.5,314,378a141.78,141.78,0,0,0,52.06-15.35,181.81,181.81,0,0,0,27.64-17.6c3.29-2.51,8.7-9.28,12.76-10.05Z"/><path class="cls-6" d="M215.61,249.49c0,19.14-9.21,34.67-20.57,34.67s-20.57-15.53-20.57-34.67,9.21-34.68,20.57-34.68S215.61,230.34,215.61,249.49Z"/><path class="cls-6" d="M444.88,261a51.72,51.72,0,0,0-95.65-.95,8.31,8.31,0,0,0,13.44,9.2c15.49-15,40-27.07,68.69.82A8.32,8.32,0,0,0,444.88,261Z"/><path class="cls-2" d="M524.59,43.07c-20.52,99.69-98.65,123.15-98.65,123.15s78.13,23.45,98.65,123.14c20.53-99.69,98.65-123.14,98.65-123.14S545.12,142.76,524.59,43.07Z"/><path class="cls-7" d="M524.59,43.07c-20.52,99.69-98.65,123.15-98.65,123.15S530.8,181.57,524.59,43.07Z"/></svg>