<svg id="Object" xmlns="http://www.w3.org/2000/svg" viewBox="0 0 600 600"><defs><style>.cls-1{fill:#ffd05d;}.cls-2{fill:#fdc453;}.cls-3{fill:#ffd77f;}.cls-4{fill:#5e4939;}.cls-5{fill:#303030;}.cls-6{fill:#f5a6ac;}</style></defs><title>emojis</title><circle class="cls-1" cx="295.33" cy="303.18" r="296.82" transform="translate(-127.88 297.63) rotate(-45)"/><path class="cls-2" d="M450.62,49.84a295.4,295.4,0,0,1,46.7,159.88c0,163.93-132.89,296.82-296.82,296.82A295.44,295.44,0,0,1,45.2,462.71C98,545.07,190.27,599.65,295.33,599.65c163.93,0,296.82-132.89,296.82-296.82C592.15,195.83,535.53,102.07,450.62,49.84Z"/><path class="cls-3" d="M38.85,334.49c0-152.2,123.38-275.58,275.58-275.58A275.13,275.13,0,0,1,532.88,166.5a275.48,275.48,0,0,0-239-138.23c-152.2,0-275.59,123.38-275.59,275.58a274.38,274.38,0,0,0,57.13,168A274.29,274.29,0,0,1,38.85,334.49Z"/><path class="cls-4" d="M173.66,333.77c-7.64-7.43-19.89.79-15.93,10.68a148.79,148.79,0,0,0,275.15,2.73c4.12-9.73-8.23-18.15-15.82-10.8C373.62,378.5,281.4,438.43,173.66,333.77Z"/><path class="cls-5" d="M372,238.24a55,55,0,0,0,101.71,1,8.84,8.84,0,0,0-14.3-9.78c-16.46,16-42.5,28.79-73-.87A8.85,8.85,0,0,0,372,238.24Z"/><path class="cls-5" d="M116.94,238.24a55,55,0,0,0,101.7,1,8.84,8.84,0,0,0-14.29-9.78c-16.47,16-42.51,28.79-73-.87a8.87,8.87,0,0,0-6.17-2.53,8.88,8.88,0,0,0-8.21,12.17Z"/><circle class="cls-6" cx="77.1" cy="344.49" r="51.82"/><circle class="cls-6" cx="513.56" cy="344.49" r="51.82"/></svg>