<svg id="Object" xmlns="http://www.w3.org/2000/svg" viewBox="0 0 600 600"><defs><style>.cls-1{fill:#ffd05d;}.cls-2{fill:#fff;}.cls-3{fill:#fdc453;}.cls-4{fill:#ffd77f;}.cls-5{fill:#5e4939;}.cls-6{fill:#303030;}.cls-7{fill:#f5a6ac;}</style></defs><title>emojis</title><path class="cls-1" d="M301.26,588.43A288.27,288.27,0,0,1,97.42,96.32,288.27,288.27,0,1,1,505.1,504,286.37,286.37,0,0,1,301.26,588.43Z"/><path class="cls-2" d="M301.26,21.88c153.69,0,278.28,124.59,278.28,278.27S455,578.43,301.26,578.43,23,453.84,23,300.15,147.58,21.88,301.26,21.88m0-20A298.35,298.35,0,0,0,185.16,575,298.34,298.34,0,0,0,417.37,25.33,296.39,296.39,0,0,0,301.26,1.88Z"/><path class="cls-3" d="M446.85,62.65a277,277,0,0,1,43.78,149.89c0,153.68-124.59,278.27-278.27,278.27A277,277,0,0,1,66.77,449.72,278.08,278.08,0,0,0,301.26,578.1c153.69,0,278.28-124.59,278.28-278.27A278.09,278.09,0,0,0,446.85,62.65Z"/><path class="cls-4" d="M60.81,329.51c0-142.69,115.67-258.36,258.36-258.36A257.91,257.91,0,0,1,524,172a258.25,258.25,0,0,0-224-129.59C157.25,42.43,41.58,158.1,41.58,300.79A257.2,257.2,0,0,0,95.14,458.28,257.24,257.24,0,0,1,60.81,329.51Z"/><path class="cls-5" d="M187.2,342.25c-7.16-7-18.65.74-14.94,10a139.48,139.48,0,0,0,258,2.56c3.87-9.12-7.71-17-14.82-10.12C374.66,384.19,288.21,440.37,187.2,342.25Z"/><path class="cls-6" d="M229.43,260.27a51.56,51.56,0,0,0-95.35-.94,8.29,8.29,0,0,0,13.4,9.16c15.44-15,39.85-27,68.47.82a8.29,8.29,0,0,0,13.48-9Z"/><path class="cls-6" d="M468.5,260.27a51.56,51.56,0,0,0-95.34-.95,8.29,8.29,0,0,0,13.4,9.17c15.44-15,39.84-27,68.46.82a8.29,8.29,0,0,0,13.48-9Z"/><circle class="cls-7" cx="96.67" cy="341.04" r="48.58"/><circle class="cls-7" cx="505.85" cy="341.04" r="48.58"/></svg>